<svg width="97" height="125" viewBox="0 0 97 125" fill="none" xmlns="http://www.w3.org/2000/svg">
<path fill-rule="evenodd" clip-rule="evenodd" d="M49.6947 0H47.1007L45.4624 0.40767L43.8241 1.22301L42.1858 2.44602L37.544 7.06629L36.8614 6.9304L32.7657 5.84328L29.6257 5.16382H27.9874L26.076 5.57149L24.3012 6.38684L22.663 7.60985L21.7073 8.69697L20.8881 10.0559L20.069 12.2301L18.7038 17.258L18.2942 18.0734L11.741 19.84L9.96624 20.6553L8.32796 21.8783L7.09924 23.3731L6.00705 25.5473L5.59748 27.3139V29.3523L6.14358 31.7983L7.23577 35.7391L7.37229 37.098L3.00353 41.4465L1.63829 43.2131L0.819148 44.8437L0.409577 46.6103V49.3281L0.819148 50.9588L1.36524 52.0459L2.32091 53.5407L7.37229 58.5686V59.384L6.00705 64.4119L5.59748 66.4503V68.3527L5.734 69.1681L6.41662 71.2064L7.50881 72.973L8.601 74.0601L10.3758 75.2831L12.1506 75.9626L18.1577 77.5933L18.5672 78.0009L19.5229 81.5341L20.4786 84.7954L21.2977 86.4261L22.1169 87.5132L23.4821 88.7362L24.8473 89.5516L26.076 90.0952L27.7143 90.5028H30.0352L31.4005 90.231L36.3153 88.8721L37.6806 88.7362L42.3224 93.3565L43.5511 94.3077L45.0528 95.1231L46.9642 95.6666H49.9677L51.0599 95.3949L52.6982 94.7154L54.473 93.4924L59.2513 88.7362H59.9339L64.5757 89.9593L67.0332 90.5028H69.2176L70.4463 90.231L72.0846 89.5516L73.9959 88.3286L75.0881 87.1056L76.0437 85.6108L76.7264 83.8442L78.3646 77.865L78.7742 77.5933L83.8256 76.2344L85.8735 75.5549L87.7848 74.4678L89.0135 73.3807L90.2422 71.6141L90.9248 69.9834L91.3344 68.0809V66.5862L91.0614 65.0914L90.1057 61.5582L89.4231 58.7045L93.9284 54.2202L95.1571 52.7254L95.9762 51.0947L96.5223 48.9204V46.6103L96.1127 44.9796L95.0205 42.8054L93.9284 41.4465L89.9692 37.5057L89.4231 37.2339V36.8262L90.9248 31.1188L91.3344 29.0805V27.4498L90.7883 25.2756L89.9692 23.6449L88.877 22.1501L88.0578 21.4706L86.6926 20.5194L84.6447 19.7041L78.5012 18.0734L78.3646 17.8016L77.409 14.2685L76.4533 11.0071L75.4977 9.10464L74.6785 8.15341L73.0402 6.65862L71.1289 5.70738L68.9445 5.16382H67.1697L66.214 5.29971L60.0705 6.9304L59.1148 7.06629V6.79451L58.7052 6.65862V6.38684L55.4287 3.12547L53.5173 1.49479L51.3329 0.40767L49.6947 0ZM64.1662 32.7495L62.8009 32.6136L61.8453 32.7495L60.207 33.5649L59.2513 34.652L58.1591 36.0109L56.6574 37.7774L55.5652 39.1363L53.9269 41.0388L52.8347 42.3977L51.1964 44.3002L49.9677 45.795L48.4659 47.5615L46.5546 49.8717L45.0528 51.6382L44.7798 52.1818L44.2337 52.0459L44.0972 51.7741L38.0901 45.795L36.7249 44.5719L35.4962 43.7566L34.2675 43.4848L32.7657 43.6207L31.537 44.1643L30.8544 44.7078L29.8987 45.9309L29.4891 47.4256V48.5128L29.6257 49.0563L30.1718 50.1434L30.9909 51.2306L40.8206 61.0147L42.5954 62.5095L44.0972 63.053H45.4624L46.4181 62.7812L47.7833 61.9659L48.4659 61.1505L50.1042 59.2481L51.1964 57.8892L52.8347 55.9867L53.9269 54.6278L55.5652 52.7254L56.6574 51.3665L58.2956 49.464L59.3878 48.1051L61.0261 46.2026L62.1183 44.8437L63.7566 42.9413L64.8488 41.5824L66.3505 39.8158L67.1697 38.4569L67.4427 37.2339L67.3062 36.0109L66.7601 34.652L65.8045 33.5649L64.1662 32.7495Z" fill="white"/>
<path d="M8.19143 80.5829L9.42014 80.9905L12.6967 81.9418L13.9254 82.3494L15.0176 86.2902L15.7002 87.9209L16.6559 89.6875L17.7481 91.0464L18.9768 92.4053L20.7516 93.7642L23.3456 95.1231L25.5299 95.8026L27.1682 96.0743H30.3083L32.6292 95.6667L35.2231 94.9872H35.9058L38.6362 97.705L40.6841 99.1998L42.8685 100.287L44.9163 100.966L46.0085 101.238L45.872 102.325L43.9607 109.256L42.4589 114.963L40.6841 121.486L39.8649 123.116L38.7728 124.068L37.544 124.611L36.8614 124.747H35.9058L34.5405 124.339L33.3118 123.524L32.0831 122.165L30.8544 120.67L29.3526 118.904L28.1239 117.409L26.6221 115.643L25.3934 114.148L23.7551 112.245L22.5264 110.75L22.1169 110.207L21.2977 110.343L13.5159 113.196L7.91838 115.235L5.59747 116.05L4.91486 116.186H3.68614L2.18438 115.643L0.819143 114.42L0.136524 113.061L0 112.517V111.022L0.955666 107.353L3.41309 98.2486L5.05138 92.2694L6.55314 86.562L7.91838 81.5341L8.19143 80.5829Z" fill="white"/>
<path d="M88.4674 80.5829H88.7405L89.4231 83.0289L90.9248 88.7363L92.6997 95.259L94.0649 100.423L96.7954 110.479L96.9319 111.294V112.381L96.5223 113.74L95.7032 114.827L94.7475 115.643L93.7918 116.05L93.1092 116.186H91.8805L88.1944 114.963L76.3168 110.615L74.815 110.207L73.1768 112.109L71.2654 114.42L69.6271 116.322L68.1254 118.224L66.8967 119.583L65.3949 121.486L63.347 123.66L62.1183 124.475L61.0261 124.747H60.0705L58.2957 124.204L56.9304 122.981L56.2478 121.622L54.2 114.012L51.7425 104.907L50.9234 101.782L50.7869 101.238L53.6539 100.423L55.9748 99.3357L57.8861 97.9768L59.5244 96.482L60.7531 95.259L60.8896 94.9872L62.1183 95.1231L65.5314 95.9384L66.3506 96.0743H69.4906L71.8115 95.6667L74.4055 94.7154L76.3168 93.6283L77.682 92.5412L78.7742 91.59L79.8664 90.2311L81.2317 87.9209L82.1873 85.339L82.8699 82.4853L83.143 82.2135L87.5117 80.9905L88.4674 80.5829Z" fill="white"/>
</svg>
