<?xml version="1.0" standalone="no"?>
<!DOCTYPE svg PUBLIC "-//W3C//DTD SVG 20010904//EN"
 "http://www.w3.org/TR/2001/REC-SVG-20010904/DTD/svg10.dtd">
<svg version="1.0" xmlns="http://www.w3.org/2000/svg"
 width="1057.000000pt" height="955.000000pt" viewBox="0 0 1057.000000 955.000000"
 preserveAspectRatio="xMidYMid meet">

<g transform="translate(0.000000,955.000000) scale(0.100000,-0.100000)"
fill="#000000" stroke="none">
<path d="M4738 9048 c-2 -6 -30 -13 -61 -16 -31 -2 -57 -8 -57 -13 0 -5 -16
-9 -35 -9 -19 0 -35 -4 -35 -10 0 -5 -13 -10 -29 -10 -16 0 -36 -7 -45 -15 -8
-8 -24 -15 -35 -15 -12 0 -21 -4 -21 -10 0 -5 -11 -10 -25 -10 -13 0 -35 -11
-49 -25 -14 -14 -29 -25 -35 -25 -5 0 -18 -11 -29 -25 -11 -14 -27 -25 -36
-25 -9 0 -16 -7 -16 -15 0 -8 -18 -32 -40 -54 -22 -22 -40 -44 -40 -50 0 -6
-3 -11 -7 -11 -11 0 -43 -58 -43 -76 0 -8 -4 -14 -10 -14 -5 0 -10 -13 -10
-29 0 -30 -29 -91 -42 -91 -5 0 -8 -9 -8 -21 0 -11 -4 -28 -10 -38 -5 -10 -12
-78 -15 -151 -3 -90 -9 -137 -18 -143 -9 -7 -9 -10 1 -14 6 -2 12 -11 12 -18
0 -7 -6 -16 -12 -19 -10 -5 -10 -7 0 -12 14 -7 16 -34 2 -34 -5 0 -10 -16 -10
-35 0 -19 4 -35 9 -35 4 0 11 -20 14 -45 2 -27 12 -53 24 -63 17 -16 37 -69
50 -134 3 -16 9 -28 14 -28 5 0 9 -14 9 -30 0 -17 5 -39 12 -49 9 -15 9 -34
-1 -86 -9 -46 -11 -91 -5 -153 l8 -87 8 105 c5 58 13 107 18 108 6 2 10 24 10
48 0 24 4 44 9 44 5 0 11 18 15 40 3 22 11 40 16 40 6 0 10 7 10 16 0 20 66
84 86 84 8 0 14 5 14 10 0 6 5 10 11 10 14 0 39 25 39 39 0 6 5 11 10 11 6 0
10 15 10 34 0 19 4 37 9 41 6 3 13 26 17 50 3 25 9 45 13 45 4 0 14 11 21 25
13 25 40 35 40 14 0 -14 25 -39 39 -39 6 0 11 -7 11 -15 0 -9 9 -15 25 -15 14
0 25 -4 25 -10 0 -6 26 -10 59 -10 38 0 61 -5 65 -12 5 -10 7 -10 12 0 3 6 17
12 30 12 13 0 24 5 24 10 0 6 7 10 15 10 8 0 15 -4 15 -10 0 -5 16 -10 35 -10
19 0 35 -4 35 -10 0 -5 7 -10 15 -10 8 0 26 -12 40 -26 24 -24 33 -26 135 -30
92 -3 110 -1 110 11 0 18 46 20 54 3 5 -10 7 -10 12 0 4 8 32 12 90 12 68 0
84 -3 84 -15 0 -8 6 -15 13 -15 7 0 19 -9 27 -20 15 -20 60 -28 60 -10 0 6 5
10 10 10 22 0 9 -40 -15 -46 -16 -4 -29 -18 -37 -40 -6 -19 -16 -34 -20 -34
-17 0 -7 -19 14 -26 29 -9 48 -29 48 -49 0 -23 24 -45 49 -45 19 0 21 -6 21
-65 0 -51 3 -65 15 -65 12 0 15 17 15 90 0 53 4 90 10 90 6 0 10 11 10 25 0
13 11 35 25 49 14 14 25 34 25 45 0 11 6 21 13 24 9 3 12 46 12 172 0 126 -3
169 -12 173 -8 2 -13 21 -13 48 0 24 -4 44 -10 44 -5 0 -10 22 -10 49 0 28 -4
52 -9 56 -6 3 -13 26 -17 50 -3 25 -10 45 -15 45 -5 0 -9 11 -9 25 0 14 -4 25
-10 25 -5 0 -10 11 -10 24 0 14 -7 31 -15 40 -8 8 -15 22 -15 30 0 9 -22 38
-50 66 -27 28 -50 57 -50 65 0 8 -11 17 -25 21 -14 3 -25 13 -25 20 0 18 -67
84 -86 84 -8 0 -14 5 -14 10 0 6 -9 10 -20 10 -11 0 -20 5 -20 10 0 6 -7 10
-15 10 -8 0 -15 7 -15 15 0 9 -9 15 -25 15 -14 0 -25 5 -25 10 0 6 -6 10 -14
10 -7 0 -19 7 -26 15 -7 8 -23 15 -36 15 -13 0 -24 4 -24 8 0 10 -109 35 -165
38 -22 1 -41 7 -43 13 -5 14 -52 15 -52 1 0 -5 -9 -10 -20 -10 -11 0 -20 5
-20 10 0 14 -37 13 -42 -2z m782 -1258 c0 -5 11 -10 25 -10 24 0 25 -3 25 -60
0 -33 -4 -60 -10 -60 -5 0 -10 7 -10 15 0 8 -4 15 -9 15 -5 0 -12 20 -15 45
-7 44 -20 58 -29 33 -2 -7 -8 -10 -12 -6 -4 4 -1 14 6 22 16 18 29 20 29 6z"/>
<path d="M3910 7695 c0 -8 5 -15 10 -15 6 0 10 7 10 15 0 8 -4 15 -10 15 -5 0
-10 -7 -10 -15z"/>
<path d="M4030 7675 c0 -8 -4 -15 -10 -15 -5 0 -10 -11 -10 -25 0 -14 5 -25
10 -25 6 0 10 7 10 15 0 8 5 15 10 15 6 0 10 11 10 25 0 14 -4 25 -10 25 -5 0
-10 -7 -10 -15z"/>
<path d="M4521 7659 c-17 -17 -29 -34 -27 -38 3 -4 34 -8 71 -9 91 -4 147 -52
59 -52 -19 0 -34 -4 -34 -10 0 -5 -22 -10 -50 -10 -27 0 -50 -4 -50 -9 0 -5
-10 -13 -22 -17 -26 -8 -48 -28 -48 -43 0 -16 93 -13 116 4 34 25 54 19 54
-18 0 -20 8 -39 20 -50 22 -19 80 -23 80 -6 0 14 25 39 39 39 6 0 11 -11 11
-25 0 -14 -6 -25 -13 -25 -7 0 -19 -9 -27 -20 -10 -13 -21 -18 -37 -14 -18 5
-23 2 -23 -13 0 -22 48 -53 84 -53 25 0 86 49 86 70 0 5 7 10 15 10 8 0 15 5
15 10 0 6 11 10 25 10 22 0 25 4 25 35 0 19 5 35 10 35 6 0 10 7 10 15 0 8 5
15 10 15 21 0 8 22 -39 70 -27 28 -58 50 -68 50 -11 0 -28 7 -39 15 -10 8 -27
15 -36 15 -10 0 -18 5 -18 10 0 6 -15 10 -34 10 -18 0 -50 7 -69 15 -51 21
-61 19 -96 -16z"/>
<path d="M3930 7615 c0 -14 5 -25 10 -25 6 0 10 11 10 25 0 14 -4 25 -10 25
-5 0 -10 -11 -10 -25z"/>
<path d="M5385 7622 c-16 -10 -31 -20 -33 -24 -2 -5 -14 -8 -27 -8 -13 0 -30
-7 -39 -15 -8 -8 -24 -15 -35 -15 -12 0 -21 -4 -21 -10 0 -5 -11 -10 -25 -10
-14 0 -25 -5 -25 -10 0 -6 -11 -22 -25 -36 -14 -14 -25 -31 -25 -39 0 -8 -9
-15 -19 -15 -10 0 -22 -8 -25 -17 -9 -21 4 -103 15 -103 5 0 9 -7 9 -15 0 -8
9 -15 20 -15 11 0 20 -4 20 -10 0 -5 9 -10 19 -10 11 0 27 -7 35 -16 15 -14
17 -14 32 0 8 9 22 16 30 16 8 0 14 4 14 10 0 5 16 12 35 16 19 3 38 10 41 15
3 5 12 9 20 9 17 0 74 53 74 68 0 5 7 12 15 16 17 6 21 86 4 86 -6 0 -17 7
-25 15 -9 8 -32 15 -52 15 -28 0 -33 3 -22 10 20 13 147 13 155 0 14 -22 25
-8 25 31 0 30 -6 46 -22 60 -29 23 -101 24 -143 1z m15 -207 c0 -14 -4 -25
-10 -25 -5 0 -10 -7 -10 -15 0 -9 -9 -15 -25 -15 -14 0 -25 -4 -25 -10 0 -19
-95 -11 -120 10 -20 18 -21 21 -6 35 14 15 18 15 31 1 8 -8 15 -20 15 -27 0
-8 11 -10 35 -6 39 6 59 22 69 55 10 32 46 29 46 -3z"/>
<path d="M3960 7550 c0 -5 5 -10 10 -10 6 0 10 -7 10 -15 0 -8 5 -15 10 -15
15 0 12 19 -4 36 -17 16 -26 18 -26 4z"/>
<path d="M5550 7450 c0 -5 5 -10 10 -10 6 0 10 5 10 10 0 6 -4 10 -10 10 -5 0
-10 -4 -10 -10z"/>
<path d="M4030 7280 c0 -16 5 -30 10 -30 6 0 10 14 10 30 0 17 -4 30 -10 30
-5 0 -10 -13 -10 -30z"/>
<path d="M4130 6995 c0 -14 5 -25 10 -25 6 0 10 11 10 25 0 14 -4 25 -10 25
-5 0 -10 -11 -10 -25z"/>
<path d="M4760 6992 c0 -19 12 -42 22 -42 14 0 5 43 -9 48 -7 2 -13 -1 -13 -6z"/>
<path d="M4100 6941 c0 -5 7 -25 15 -44 8 -20 15 -50 15 -67 0 -16 5 -30 10
-30 6 0 10 -22 10 -50 0 -27 4 -50 9 -50 4 0 11 -21 14 -47 3 -26 10 -49 16
-51 6 -2 11 -29 11 -63 0 -33 4 -59 10 -59 6 0 10 -10 10 -22 0 -13 7 -36 15
-52 8 -15 15 -44 15 -62 0 -19 5 -34 10 -34 6 0 10 -15 10 -33 0 -18 7 -42 15
-53 8 -10 15 -40 15 -66 0 -27 5 -48 10 -48 6 0 10 -28 10 -65 0 -36 7 -82 15
-102 12 -27 15 -80 15 -229 0 -158 -3 -195 -15 -208 -9 -9 -15 -33 -15 -60 0
-25 -4 -46 -10 -46 -5 0 -10 -14 -10 -31 0 -17 -7 -37 -15 -45 -8 -9 -15 -24
-15 -35 0 -10 -4 -19 -8 -19 -4 0 -14 -20 -21 -46 -7 -25 -20 -51 -27 -59 -8
-7 -14 -23 -14 -34 0 -12 -4 -21 -8 -21 -5 0 -17 -17 -28 -37 -19 -38 -29 -52
-51 -78 -7 -7 -13 -18 -13 -24 0 -6 -4 -11 -10 -11 -5 0 -10 -10 -10 -23 0
-13 -7 -32 -15 -43 -8 -10 -15 -34 -15 -51 0 -18 -4 -33 -10 -33 -5 0 -10 -21
-10 -47 -1 -27 -7 -59 -15 -73 -8 -14 -14 -52 -15 -87 0 -35 -4 -63 -10 -63
-5 0 -10 -4 -10 -9 0 -9 87 -24 143 -24 15 0 27 -4 27 -8 0 -13 113 -7 149 7
18 8 46 14 62 14 16 0 29 5 29 10 0 6 26 10 57 10 60 0 173 27 173 41 0 5 50
9 110 9 61 0 110 -4 110 -9 0 -5 98 -10 217 -13 160 -2 217 -6 221 -16 5 -17
112 -15 136 3 11 8 34 15 52 15 18 0 35 6 38 13 5 10 7 10 12 0 3 -7 12 -13
19 -13 8 0 26 -11 40 -25 18 -19 25 -36 25 -65 0 -22 5 -40 10 -40 6 0 10 -7
10 -15 0 -32 59 -105 85 -105 8 0 15 -4 15 -10 0 -5 7 -10 15 -10 8 0 15 5 15
10 0 6 5 10 10 10 6 0 10 -7 10 -15 0 -9 9 -15 25 -15 14 0 25 -4 25 -10 0 -5
5 -10 10 -10 6 0 10 5 10 11 0 6 6 17 13 24 32 37 37 46 37 76 0 32 -30 69
-57 69 -7 0 -13 5 -13 10 0 6 -5 10 -11 10 -6 0 -17 6 -24 13 -36 31 -46 37
-65 37 -11 0 -20 5 -20 10 0 6 -11 10 -25 10 -16 0 -25 6 -25 15 0 8 -5 15
-10 15 -11 0 -31 15 -53 38 -7 7 -33 35 -59 62 -27 27 -48 54 -48 60 0 5 -7
10 -15 10 -8 0 -15 5 -15 11 0 6 -6 17 -12 24 -30 33 -38 45 -38 55 0 5 -4 10
-8 10 -5 0 -14 16 -22 35 -8 19 -20 35 -27 35 -7 0 -13 10 -13 21 0 12 -11 32
-25 45 -16 15 -25 34 -25 54 0 16 -4 30 -9 30 -5 0 -12 16 -15 35 -4 19 -11
35 -16 35 -6 0 -10 11 -10 25 0 14 -4 25 -10 25 -5 0 -10 9 -10 21 0 11 -7 27
-15 35 -8 9 -15 26 -15 40 0 13 -4 24 -10 24 -5 0 -10 13 -10 29 0 17 -4 32
-9 36 -5 3 -12 19 -16 35 -4 17 -11 30 -16 30 -5 0 -9 15 -9 34 0 19 -5 36
-11 38 -7 2 -13 59 -17 161 -2 86 -9 157 -13 157 -5 0 -9 95 -9 210 0 133 4
210 10 210 6 0 10 15 10 33 0 30 17 64 47 95 7 7 13 19 13 25 0 8 4 7 12 -1
20 -20 28 -14 28 24 0 19 7 42 15 50 8 9 15 26 15 40 0 13 5 24 10 24 6 0 10
7 10 15 0 8 5 15 10 15 6 0 10 9 10 20 0 11 7 23 15 26 8 4 15 15 15 25 0 10
4 19 9 19 5 0 12 11 15 25 4 14 11 25 16 25 6 0 10 7 10 15 0 8 5 15 10 15 6
0 10 11 10 25 0 14 5 25 10 25 6 0 10 10 9 23 l0 22 -11 -22 c-6 -13 -15 -23
-20 -23 -4 0 -8 -5 -8 -11 0 -6 -6 -17 -12 -24 -28 -31 -38 -44 -38 -51 0 -3
-27 -32 -60 -64 -33 -32 -60 -65 -60 -74 0 -19 -73 -96 -107 -114 -12 -7 -33
-12 -47 -12 -14 0 -26 -4 -26 -10 0 -5 -4 -10 -10 -10 -5 0 -10 6 -10 14 0 8
-16 16 -41 20 -44 7 -59 2 -59 -20 0 -11 -16 -14 -70 -14 -38 0 -70 4 -70 9 0
5 -32 17 -71 26 -39 8 -77 22 -85 30 -16 16 -19 55 -4 55 6 0 10 5 10 11 0 14
-25 39 -39 39 -6 0 -11 4 -11 9 0 5 -15 13 -32 17 -34 7 -68 37 -68 61 0 9
-16 13 -60 13 -36 0 -60 4 -60 11 0 11 -24 39 -34 39 -2 0 -18 14 -35 31 -21
20 -31 40 -31 60 0 17 -5 29 -13 29 -7 0 -19 16 -26 35 -7 19 -17 35 -22 35
-5 0 -9 7 -9 15 0 8 -7 15 -15 15 -8 0 -15 -4 -15 -9z"/>
<path d="M3930 6907 c0 -14 7 -27 15 -31 9 -3 16 -20 16 -43 2 -26 3 -30 6
-13 2 14 0 43 -4 64 -10 45 -33 61 -33 23z"/>
<path d="M4890 6890 c0 -5 5 -10 10 -10 6 0 10 -7 10 -15 0 -8 -5 -15 -11 -15
-17 0 -39 -27 -39 -49 0 -16 6 -21 25 -21 16 0 25 -6 25 -15 0 -12 -13 -15
-60 -15 -33 0 -60 -4 -60 -10 0 -5 -11 -10 -25 -10 -14 0 -25 4 -25 9 0 5 -10
11 -22 13 -15 2 -24 11 -26 26 -3 18 -10 22 -38 22 -19 0 -34 -4 -34 -10 0 -5
-16 -10 -35 -10 -34 0 -35 -1 -35 -40 l0 -40 130 0 c80 0 130 -4 130 -10 0 -5
9 -10 19 -10 39 0 51 -10 38 -31 -6 -10 -20 -19 -29 -19 -10 0 -18 -4 -18 -10
0 -5 -8 -10 -17 -10 -27 0 -44 -15 -38 -31 8 -22 138 -40 198 -27 26 5 47 14
47 19 0 5 7 9 15 9 8 0 15 5 15 10 0 6 -7 13 -15 16 -23 9 -18 24 8 24 12 0
31 11 41 25 10 14 27 25 37 25 11 0 19 6 19 14 0 22 17 28 40 16 27 -14 60 -4
60 20 0 11 10 20 25 24 34 9 35 46 1 46 -13 0 -27 6 -30 13 -5 10 -7 10 -12 0
-7 -15 -84 -18 -84 -3 0 6 -9 10 -20 10 -10 0 -24 8 -30 18 -8 12 -13 13 -16
5 -7 -15 -54 -18 -54 -3 0 6 -11 10 -25 10 -14 0 -25 4 -25 9 0 5 -11 12 -25
15 -14 4 -25 11 -25 16 0 6 -4 10 -10 10 -5 0 -10 -4 -10 -10z m240 -110 c0
-11 -4 -20 -10 -20 -5 0 -10 2 -10 4 0 2 -3 11 -6 20 -4 11 -1 16 10 16 9 0
16 -8 16 -20z m-45 -20 c-3 -5 -26 -10 -51 -10 -24 0 -44 5 -44 10 0 6 23 10
51 10 31 0 48 -4 44 -10z m-105 -20 c0 -5 -11 -10 -25 -10 -14 0 -25 5 -25 10
0 6 11 10 25 10 14 0 25 -4 25 -10z"/>
<path d="M6666 6445 c-11 -8 -28 -15 -38 -15 -10 0 -18 -4 -18 -10 0 -5 -7
-10 -15 -10 -8 0 -15 -7 -15 -15 0 -8 -4 -15 -10 -15 -5 0 -10 -10 -10 -22 -1
-13 -7 -34 -15 -48 -8 -14 -14 -42 -15 -62 0 -21 -4 -38 -10 -38 -5 0 -10 -16
-10 -35 0 -24 -5 -35 -15 -35 -9 0 -15 -9 -15 -25 0 -14 -4 -25 -10 -25 -16 0
-12 -67 5 -74 20 -7 75 4 75 15 0 5 14 9 30 9 17 0 30 4 30 8 0 9 70 42 88 42
7 0 12 5 12 10 0 6 9 10 19 10 10 0 21 7 25 15 3 8 15 15 26 15 11 0 20 5 20
10 0 6 11 10 25 10 23 0 25 4 25 45 0 36 -5 51 -25 69 -14 13 -25 31 -25 40 0
9 -4 16 -10 16 -5 0 -10 7 -10 15 0 8 -7 15 -15 15 -8 0 -15 9 -15 20 0 19
-46 80 -59 80 -3 0 -15 -7 -25 -15z"/>
<path d="M5210 6420 c0 -5 5 -10 10 -10 6 0 10 5 10 10 0 6 -4 10 -10 10 -5 0
-10 -4 -10 -10z"/>
<path d="M4127 6283 c-12 -11 -8 -23 8 -23 8 0 15 7 15 15 0 16 -12 20 -23 8z"/>
<path d="M4129 6218 c-4 -38 4 -123 12 -126 13 -5 12 -232 -1 -232 -13 0 -13
-87 1 -92 6 -2 10 -35 11 -76 0 -39 4 -72 9 -72 5 0 9 29 9 64 0 44 5 69 15
80 19 19 22 232 3 238 -7 3 -13 37 -16 91 -2 48 -8 90 -13 93 -5 3 -9 14 -9
25 0 21 -19 27 -21 7z"/>
<path d="M2703 6060 c-3 -11 -9 -20 -14 -20 -5 0 -9 -11 -9 -25 0 -16 -6 -25
-15 -25 -9 0 -15 -9 -15 -21 0 -12 -8 -29 -18 -38 -29 -25 -36 -83 -13 -109
10 -12 23 -22 29 -22 6 0 22 -11 35 -24 13 -13 33 -27 45 -30 12 -4 22 -12 22
-17 0 -5 11 -9 25 -9 14 0 25 -4 25 -9 0 -5 18 -11 40 -15 22 -3 40 -11 40
-16 0 -6 16 -10 35 -10 19 0 35 -4 35 -10 0 -5 9 -10 20 -10 10 0 23 -7 28
-15 12 -23 42 -7 49 26 3 16 9 29 14 29 5 0 9 5 9 11 0 6 7 17 15 25 9 9 15
34 15 61 0 44 -3 49 -80 124 -46 46 -89 79 -100 79 -11 0 -20 7 -20 15 0 11
-12 15 -45 15 -25 0 -45 5 -45 10 0 6 -11 10 -25 10 -14 0 -25 3 -25 8 0 4
-12 12 -26 19 -23 11 -27 10 -31 -7z"/>
<path d="M5750 5745 c0 -14 5 -25 10 -25 6 0 10 -8 10 -17 0 -23 33 -103 43
-103 4 0 7 9 7 21 0 11 6 26 13 32 24 22 79 47 103 47 13 0 24 5 24 10 0 6 4
10 10 10 12 0 50 32 50 42 0 5 -7 8 -15 8 -8 0 -15 -4 -15 -10 0 -5 -8 -10
-17 -10 -10 0 -27 -7 -37 -15 -11 -8 -30 -15 -43 -15 -14 0 -23 -6 -23 -15 0
-8 -7 -15 -15 -15 -8 0 -15 -4 -15 -10 0 -22 -40 -9 -46 15 -3 14 -10 25 -15
25 -5 0 -9 11 -9 25 0 14 -4 25 -10 25 -5 0 -10 -11 -10 -25z"/>
<path d="M3320 5675 c0 -14 4 -25 9 -25 5 0 12 -11 15 -25 4 -14 11 -25 16
-25 6 0 10 -11 10 -25 0 -14 5 -25 10 -25 6 0 10 -7 10 -15 0 -8 5 -15 10 -15
6 0 10 11 10 25 0 14 -4 25 -10 25 -5 0 -10 11 -10 25 0 16 -6 25 -15 25 -9 0
-15 9 -15 25 0 14 -4 25 -10 25 -5 0 -10 7 -10 15 0 8 -4 15 -10 15 -5 0 -10
-11 -10 -25z"/>
<path d="M4130 5560 c0 -5 5 -10 10 -10 6 0 10 5 10 10 0 6 -4 10 -10 10 -5 0
-10 -4 -10 -10z"/>
<path d="M4100 5500 c0 -11 -4 -20 -8 -20 -12 0 -36 -75 -29 -91 4 -10 6 -9 6
4 1 9 8 17 16 17 10 0 15 11 15 35 0 19 5 35 10 35 6 0 10 9 10 20 0 11 -4 20
-10 20 -5 0 -10 -9 -10 -20z"/>
<path d="M5700 5435 c0 -17 2 -18 24 -9 23 9 20 24 -4 24 -11 0 -20 -7 -20
-15z"/>
<path d="M5725 5371 c-3 -5 -1 -12 5 -16 5 -3 10 1 10 9 0 18 -6 21 -15 7z"/>
<path d="M4030 5340 c0 -5 5 -10 10 -10 6 0 10 5 10 10 0 6 -4 10 -10 10 -5 0
-10 -4 -10 -10z"/>
<path d="M5750 5285 c0 -14 5 -25 10 -25 6 0 10 11 10 25 0 14 -4 25 -10 25
-5 0 -10 -11 -10 -25z"/>
<path d="M6020 4380 c0 -33 -4 -60 -10 -60 -5 0 -12 -11 -16 -25 -3 -14 -10
-25 -15 -25 -5 0 -9 -8 -9 -17 0 -10 -11 -27 -24 -38 -30 -26 -43 -65 -23 -65
9 0 17 4 19 9 2 5 17 11 33 14 17 2 38 7 47 11 30 13 40 2 18 -21 -11 -12 -20
-26 -20 -32 0 -16 -88 -101 -105 -101 -9 0 -18 -7 -21 -15 -4 -8 -15 -15 -25
-15 -10 0 -19 -4 -19 -10 0 -5 -11 -10 -24 -10 -13 0 -26 -7 -30 -15 -3 -8
-17 -15 -31 -15 -14 0 -25 -4 -25 -10 0 -5 -12 -10 -27 -10 -16 0 -41 -7 -57
-15 -15 -8 -37 -15 -48 -15 -14 0 -18 -5 -14 -16 3 -9 6 -18 6 -20 0 -2 11 -4
25 -4 14 0 25 5 25 10 0 15 117 13 123 -2 4 -10 7 -10 18 0 18 16 29 15 29 -3
0 -22 16 -18 37 8 21 24 49 45 76 53 9 4 17 10 17 15 0 5 36 9 79 9 l79 0 5
53 c22 249 30 312 38 315 5 2 9 26 9 53 0 52 -11 61 -49 38 -23 -15 -71 -4
-71 16 0 8 -4 15 -10 15 -6 0 -10 -27 -10 -60z"/>
<path d="M4438 4295 c-10 -13 -18 -29 -18 -34 0 -6 -4 -11 -10 -11 -5 0 -10
-5 -10 -11 0 -6 -6 -17 -12 -24 -30 -33 -38 -45 -38 -54 0 -5 -7 -11 -15 -15
-8 -3 -15 -14 -15 -25 0 -11 -6 -21 -12 -24 -8 -2 -9 -8 -4 -13 5 -5 11 -4 13
4 3 8 31 12 89 12 49 0 84 4 84 10 0 6 28 10 64 10 44 0 69 5 80 15 8 8 28 15
45 15 17 0 31 5 31 10 0 6 10 10 23 10 13 0 32 7 43 15 10 8 29 15 42 15 12 0
22 4 22 8 0 14 -35 42 -53 42 -9 0 -17 5 -17 10 0 6 -10 10 -22 10 -13 0 -32
7 -42 15 -11 8 -35 15 -53 15 -18 0 -33 5 -33 10 0 6 -34 10 -82 10 -76 -1
-84 -3 -100 -25z"/>
<path d="M5203 4007 c15 -6 27 -18 27 -28 0 -14 15 -18 94 -24 111 -8 168 8
67 19 -33 4 -61 11 -61 16 0 6 -18 10 -40 10 -22 0 -40 5 -40 10 0 6 -17 10
-37 9 -38 -1 -38 -1 -10 -12z"/>
<path d="M3732 3918 c5 -15 128 -24 128 -10 0 13 -36 22 -88 22 -31 0 -42 -4
-40 -12z"/>
<path d="M6163 3679 c-3 -10 -9 -19 -14 -19 -5 0 -9 -5 -9 -11 0 -6 -6 -17
-12 -24 -30 -33 -38 -45 -38 -54 0 -5 -4 -11 -9 -13 -4 -1 -12 -13 -15 -25 -6
-20 -4 -23 17 -23 17 0 26 7 30 21 3 11 15 23 26 26 12 3 21 12 21 19 0 8 7
14 15 14 8 0 15 9 15 20 0 13 7 20 19 20 26 0 37 18 17 26 -9 3 -16 12 -16 19
0 7 -9 15 -21 18 -15 4 -23 0 -26 -14z"/>
<path d="M4290 3670 c0 -6 28 -10 65 -10 37 0 65 4 65 10 0 6 -28 10 -65 10
-37 0 -65 -4 -65 -10z"/>
<path d="M3880 3632 c0 -17 8 -21 53 -25 63 -6 147 -29 147 -39 0 -5 23 -8 50
-8 28 0 50 4 50 10 0 16 -57 40 -95 40 -19 0 -35 4 -35 9 0 10 -43 20 -117 28
-48 4 -53 3 -53 -15z"/>
<path d="M2260 3600 c0 -5 7 -10 15 -10 8 0 15 5 15 10 0 6 -7 10 -15 10 -8 0
-15 -4 -15 -10z"/>
<path d="M7930 3130 c0 -304 5 -372 25 -310 4 12 15 20 28 19 12 0 16 -3 10
-6 -15 -6 -17 -43 -3 -43 6 0 13 7 16 15 4 9 19 15 40 15 19 0 34 5 34 11 0
11 25 39 35 39 4 0 13 6 20 13 8 6 21 18 30 25 8 7 15 22 15 33 0 23 66 93 98
103 12 4 22 12 22 17 0 5 11 9 25 9 14 0 25 4 25 9 0 11 57 20 82 13 10 -2 18
-13 18 -23 0 -11 5 -19 10 -19 6 0 10 5 10 10 0 6 7 10 15 10 8 0 15 6 15 13
0 7 3 8 8 2 11 -15 49 -35 67 -35 9 0 18 -7 21 -15 8 -19 61 -20 80 -1 8 8 14
23 14 33 0 10 20 36 45 58 50 44 54 54 25 75 -11 8 -20 20 -20 27 0 7 -11 13
-25 13 -14 0 -25 5 -25 10 0 6 -6 10 -14 10 -7 0 -19 7 -26 15 -7 8 -23 15
-36 15 -13 0 -24 5 -24 10 0 6 -9 10 -19 10 -10 0 -21 7 -25 15 -3 8 -15 15
-26 15 -11 0 -20 5 -20 10 0 6 -17 10 -37 10 -21 0 -76 7 -123 15 -47 8 -102
15 -122 15 -21 0 -38 5 -38 10 0 6 -10 10 -22 10 -13 0 -32 7 -42 15 -11 8
-30 15 -43 15 -13 0 -23 5 -23 10 0 6 -27 10 -60 10 l-60 0 0 -330z m610 110
c0 -11 -6 -20 -14 -20 -8 0 -17 -6 -19 -12 -3 -7 -6 2 -6 20 -1 26 3 32 19 32
13 0 20 -7 20 -20z m-70 -60 c0 -5 -4 -10 -10 -10 -5 0 -10 5 -10 10 0 6 5 10
10 10 6 0 10 -4 10 -10z m-30 -30 c0 -5 -2 -10 -4 -10 -3 0 -8 5 -11 10 -3 6
-1 10 4 10 6 0 11 -4 11 -10z"/>
<path d="M6158 3043 c-10 -2 -18 -9 -18 -14 0 -5 -16 -17 -35 -26 -19 -9 -35
-20 -35 -25 0 -4 -5 -8 -11 -8 -15 0 -35 -22 -43 -48 -5 -15 -15 -22 -34 -22
-31 0 -80 -51 -89 -92 -3 -15 -14 -30 -24 -33 -11 -4 -19 -11 -19 -16 0 -5 -7
-9 -15 -9 -9 0 -15 -9 -15 -25 0 -14 -5 -25 -11 -25 -12 0 -39 -25 -39 -37 0
-4 -11 -17 -25 -27 -14 -10 -25 -26 -25 -36 0 -9 -11 -22 -25 -28 -14 -6 -25
-18 -25 -27 0 -8 -4 -15 -10 -15 -5 0 -10 -4 -10 -10 0 -5 11 -10 24 -10 14 0
31 -7 40 -15 8 -8 17 -15 21 -15 4 0 13 -6 20 -12 37 -34 47 -38 80 -38 19 0
35 -4 35 -9 0 -5 18 -11 40 -15 22 -3 40 -11 40 -16 0 -6 14 -10 31 -10 17 0
37 -7 45 -15 9 -8 20 -15 25 -15 5 0 9 7 9 15 0 8 7 15 15 15 8 0 15 7 15 15
0 9 9 15 25 15 14 0 25 5 25 10 0 6 30 10 70 10 40 0 70 -4 70 -10 0 -5 7 -10
15 -10 8 0 15 -7 15 -15 0 -9 9 -15 25 -15 20 0 25 -5 25 -25 0 -14 4 -25 9
-25 5 0 12 -11 15 -25 4 -14 11 -25 16 -25 6 0 10 -40 10 -95 0 -57 4 -95 10
-95 6 0 10 -37 10 -90 0 -53 -4 -90 -10 -90 -5 0 -10 -20 -10 -44 0 -30 -5
-46 -15 -50 -8 -3 -15 -17 -15 -31 0 -14 -4 -25 -10 -25 -5 0 -10 -16 -10 -35
0 -28 4 -35 19 -35 22 0 31 26 31 88 0 23 5 42 10 42 6 0 10 9 10 20 0 11 4
20 8 20 8 0 50 34 100 80 12 11 22 31 22 43 0 12 11 31 25 41 18 14 25 28 25
52 0 19 5 34 10 34 6 0 10 5 10 11 0 6 19 29 41 50 l41 39 94 -1 c65 -1 94 -5
94 -14 0 -8 25 -11 82 -11 56 1 83 -3 86 -12 4 -14 52 -17 52 -2 0 6 16 10 35
10 28 0 35 -4 35 -20 0 -11 5 -20 10 -20 6 0 10 5 10 10 0 6 7 10 15 10 8 0
15 5 15 10 0 6 7 10 15 10 8 0 15 -9 15 -20 0 -27 14 -25 28 3 6 12 11 16 11
10 1 -16 151 -18 151 -3 0 14 27 12 34 -2 5 -10 7 -10 12 0 7 15 124 17 124 2
0 -5 7 -10 15 -10 8 0 15 5 15 10 0 14 47 12 54 -2 5 -10 7 -10 12 0 3 7 25
12 54 12 31 0 54 6 64 16 21 20 21 64 1 64 -8 0 -15 5 -15 10 0 6 -8 10 -17
10 -10 0 -27 7 -37 15 -11 8 -35 15 -53 15 -18 0 -33 5 -33 10 0 6 -35 10 -85
10 -47 0 -85 4 -85 9 0 5 -45 12 -100 16 -55 4 -100 11 -100 16 0 5 -22 9 -50
9 -27 0 -50 5 -50 10 0 6 -11 10 -24 10 -14 0 -31 7 -40 15 -8 8 -28 15 -45
15 -17 0 -31 5 -31 10 0 6 -12 10 -26 10 -14 0 -32 7 -40 15 -9 8 -26 15 -40
15 -13 0 -24 4 -24 9 0 4 -21 11 -47 14 -26 3 -49 10 -51 16 -2 6 -26 11 -53
11 -27 0 -49 4 -49 9 0 5 -24 11 -52 14 -29 2 -71 9 -93 16 -57 15 -171 14
-238 -4 -32 -8 -67 -15 -79 -15 -11 0 -41 -22 -68 -50 -44 -46 -48 -48 -53
-28 -3 11 1 37 9 56 9 23 14 72 14 153 0 73 4 119 10 119 6 0 10 40 10 99 0
60 4 101 10 103 11 3 -26 49 -38 47 -4 -1 -15 -3 -24 -6z"/>
<path d="M2654 2665 c-4 -8 -15 -15 -25 -15 -10 0 -19 -4 -19 -10 0 -5 -7 -10
-15 -10 -8 0 -15 -7 -15 -15 0 -8 -9 -15 -20 -15 -12 0 -33 -11 -48 -25 -15
-14 -32 -25 -39 -25 -7 0 -13 -4 -13 -10 0 -5 -11 -10 -25 -10 -14 0 -25 -4
-25 -9 0 -5 -11 -12 -25 -15 -14 -4 -25 -11 -25 -16 0 -6 -11 -10 -25 -10 -14
0 -25 -4 -25 -9 0 -5 -11 -12 -25 -15 -14 -4 -25 -11 -25 -16 0 -6 -9 -10 -21
-10 -11 0 -27 -6 -34 -12 -33 -30 -45 -38 -55 -38 -5 0 -10 -6 -10 -13 0 -7
-11 -24 -25 -39 -14 -15 -25 -32 -25 -38 0 -5 -5 -10 -11 -10 -11 0 -39 -25
-39 -35 0 -4 -6 -13 -12 -20 -30 -33 -38 -45 -38 -54 0 -5 -6 -12 -12 -15 -10
-5 -10 -7 0 -12 6 -3 12 -12 12 -20 0 -8 10 -14 25 -14 14 0 25 -4 25 -9 0 -5
11 -12 25 -15 14 -4 25 -11 25 -16 0 -6 7 -10 15 -10 8 0 15 -3 15 -7 0 -11
58 -43 76 -43 8 0 14 -4 14 -10 0 -14 47 -12 54 3 5 10 7 10 12 0 7 -15 34
-17 34 -3 0 6 11 10 25 10 14 0 25 5 25 11 0 8 19 9 63 5 34 -3 117 -9 185
-12 67 -4 122 -11 122 -15 0 -5 15 -9 33 -9 18 0 42 -7 53 -15 10 -8 29 -15
42 -15 12 0 22 -4 22 -10 0 -5 16 -10 35 -10 24 0 35 -5 35 -15 0 -10 11 -15
35 -15 31 0 35 3 35 25 0 14 -4 25 -9 25 -5 0 -12 11 -15 25 -4 14 -11 25 -16
25 -6 0 -10 11 -10 25 0 14 -4 25 -10 25 -5 0 -10 11 -10 25 0 14 -4 25 -10
25 -5 0 -12 16 -16 35 -3 19 -10 35 -15 35 -5 0 -9 11 -9 25 0 14 -4 25 -9 25
-5 0 -12 14 -16 30 -4 17 -11 30 -16 30 -5 0 -9 14 -9 30 0 17 -4 30 -10 30
-5 0 -10 11 -10 25 0 14 -7 28 -15 31 -8 4 -15 17 -15 30 0 13 -4 24 -10 24
-5 0 -10 8 -10 18 0 9 -7 26 -15 36 -8 11 -15 28 -15 38 0 10 -4 18 -10 18 -5
0 -10 8 -10 17 0 9 -8 34 -17 54 -19 40 -49 52 -59 24z"/>
<path d="M4796 2515 c-8 -8 -22 -15 -31 -15 -9 0 -32 -16 -51 -35 -18 -19 -43
-35 -54 -35 -11 0 -20 -4 -20 -9 0 -5 -10 -13 -22 -17 -13 -4 -30 -15 -38 -24
-8 -9 -25 -20 -37 -24 -13 -4 -23 -12 -23 -17 0 -5 -7 -9 -15 -9 -8 0 -15 -3
-15 -8 0 -4 -16 -16 -35 -26 -19 -11 -35 -23 -35 -28 0 -4 -6 -8 -13 -8 -7 0
-24 -11 -39 -25 -15 -14 -36 -25 -48 -25 -11 0 -20 -7 -20 -15 0 -9 -9 -15
-25 -15 -14 0 -25 -4 -25 -10 0 -5 -5 -10 -11 -10 -6 0 -17 -6 -24 -12 -36
-32 -46 -38 -65 -38 -11 0 -20 -4 -20 -9 0 -5 -11 -12 -25 -15 -14 -4 -25 -11
-25 -16 0 -6 -11 -10 -25 -10 -14 0 -25 -4 -25 -9 0 -5 -11 -12 -25 -15 -14
-4 -25 -11 -25 -16 0 -6 -11 -10 -25 -10 -44 0 -27 -18 23 -25 31 -4 54 -13
63 -26 15 -21 65 -26 72 -6 4 10 6 10 6 0 1 -8 16 -13 40 -13 22 0 41 -5 44
-12 4 -10 7 -10 18 0 16 14 49 16 49 2 0 -5 -7 -10 -15 -10 -9 0 -18 -7 -21
-15 -4 -8 -12 -15 -20 -15 -8 0 -14 -4 -14 -10 0 -5 -16 -12 -35 -16 -19 -3
-35 -10 -35 -15 0 -5 -7 -9 -15 -9 -8 0 -15 -4 -15 -10 0 -5 -11 -10 -24 -10
-14 0 -31 -7 -40 -15 -8 -8 -28 -15 -45 -15 -17 0 -31 -4 -31 -10 0 -5 -22
-10 -48 -10 -27 0 -57 -6 -68 -15 -14 -11 -50 -14 -147 -15 -98 0 -132 -3
-143 -14 -21 -22 -17 -36 11 -36 14 0 25 -4 25 -10 0 -5 16 -10 35 -10 24 0
35 -5 35 -15 0 -9 9 -15 25 -15 14 0 25 -4 25 -10 0 -5 8 -10 19 -10 10 0 30
-11 45 -25 15 -14 34 -25 42 -25 9 0 23 -7 31 -16 17 -17 75 -12 81 6 2 6 10
10 18 10 8 0 14 7 14 15 0 8 5 15 10 15 6 0 10 9 10 20 0 11 5 20 10 20 6 0
10 7 10 15 0 12 13 15 55 15 46 0 60 -4 78 -23 23 -25 42 -32 145 -50 34 -6
62 -15 62 -19 0 -4 29 -8 65 -8 36 0 65 -4 65 -9 0 -5 11 -12 25 -15 14 -4 25
-11 25 -16 0 -6 11 -10 25 -10 14 0 25 -4 25 -10 0 -5 11 -10 24 -10 14 0 31
-7 40 -15 8 -8 24 -15 35 -15 12 0 21 -4 21 -10 0 -5 24 -10 54 -10 29 0 70
-7 89 -15 20 -8 52 -15 72 -15 19 0 35 -4 35 -10 0 -18 60 -11 82 10 19 17 19
20 5 26 -10 3 -17 13 -17 21 0 7 -11 24 -25 37 -14 13 -25 28 -25 35 0 6 -3
11 -7 11 -13 0 -43 60 -43 86 0 13 -4 24 -10 24 -5 0 -10 7 -10 15 0 8 5 15
10 15 6 0 10 26 10 59 0 37 5 61 12 63 6 2 13 31 16 66 2 34 8 62 13 62 5 0 9
21 9 46 0 44 16 74 39 74 6 0 11 9 11 21 0 11 7 27 15 35 8 9 15 26 15 40 0
13 5 24 10 24 6 0 10 18 10 40 0 22 5 40 10 40 6 0 10 6 10 13 0 7 11 24 25
39 25 27 35 88 15 88 -5 0 -10 7 -10 15 0 8 -7 15 -15 15 -8 0 -15 5 -15 10 0
6 -15 10 -34 10 -19 0 -41 7 -50 15 -8 8 -19 15 -25 15 -6 0 -11 6 -11 13 0
33 -134 52 -164 22z"/>
<path d="M6048 2317 c-5 -10 -8 -28 -8 -39 0 -27 -24 -48 -54 -48 -14 0 -26
-4 -26 -10 0 -5 -9 -10 -20 -10 -13 0 -20 7 -20 19 0 24 -19 31 -80 31 -57 0
-67 -9 -40 -38 30 -32 25 -67 -15 -106 -19 -19 -35 -39 -35 -45 0 -6 -7 -11
-15 -11 -8 0 -15 -5 -15 -11 0 -23 -30 -39 -73 -39 -44 0 -44 0 -52 43 -8 42
-8 42 -15 12 -19 -78 -5 -166 30 -185 25 -14 37 -13 22 2 -13 13 -15 49 -6 86
5 17 14 22 40 22 24 0 34 -5 34 -15 0 -8 5 -15 10 -15 15 0 13 -117 -2 -123
-25 -10 16 -27 65 -27 26 0 47 -4 47 -10 0 -5 15 -10 34 -10 19 0 36 -4 38 -9
2 -4 13 -12 26 -15 16 -6 22 -3 22 8 0 10 9 16 25 16 22 0 25 -4 25 -35 0 -34
1 -35 40 -35 22 0 40 5 40 10 0 6 7 10 15 10 9 0 26 11 39 25 13 14 33 25 45
25 19 0 21 4 16 33 -5 28 -2 36 19 52 34 25 33 31 -5 39 -25 5 -29 9 -20 20
16 19 -14 90 -35 82 -9 -3 -20 -6 -25 -6 -5 0 -9 -25 -9 -56 0 -60 -14 -84
-49 -84 -12 0 -21 -6 -21 -15 0 -18 -46 -21 -54 -2 -5 10 -7 10 -12 0 -8 -19
-41 -16 -62 5 -16 16 -19 37 -20 148 0 81 -5 130 -11 132 -21 7 -11 22 14 22
14 0 25 4 25 10 0 5 11 12 25 16 14 3 25 10 25 15 0 5 14 9 31 9 45 0 61 21
57 77 -2 33 -5 42 -10 30z"/>
<path d="M6050 2100 c0 -5 5 -10 10 -10 6 0 10 -7 10 -15 0 -8 5 -15 10 -15 6
0 10 11 10 25 0 18 -5 25 -20 25 -11 0 -20 -4 -20 -10z"/>
<path d="M6240 2100 c0 -5 -7 -10 -15 -10 -8 0 -15 -7 -15 -15 0 -11 11 -15
40 -15 36 0 40 3 40 25 0 20 -5 25 -25 25 -14 0 -25 -4 -25 -10z"/>
<path d="M6310 2085 c0 -28 14 -32 36 -11 21 22 17 36 -11 36 -20 0 -25 -5
-25 -25z"/>
<path d="M3880 1970 c0 -5 4 -10 9 -10 6 0 13 5 16 10 3 6 -1 10 -9 10 -9 0
-16 -4 -16 -10z"/>
<path d="M3810 1950 c0 -5 -16 -10 -36 -10 -19 0 -42 -7 -50 -15 -9 -8 -26
-15 -40 -15 -13 0 -24 -4 -24 -10 0 -5 -15 -10 -33 -10 -18 0 -42 -7 -53 -15
-10 -8 -34 -15 -51 -15 -18 0 -33 -4 -33 -10 0 -14 117 -13 122 1 2 6 25 13
51 16 26 3 47 10 47 14 0 5 38 9 85 9 50 0 85 4 85 10 0 6 -11 10 -25 10 -20
0 -25 5 -25 25 0 14 -4 25 -10 25 -5 0 -10 -4 -10 -10z"/>
<path d="M3440 1830 c0 -5 7 -10 15 -10 8 0 15 5 15 10 0 6 -7 10 -15 10 -8 0
-15 -4 -15 -10z"/>
<path d="M5600 1701 c0 -8 6 -11 16 -7 9 3 37 6 62 6 33 1 42 3 32 10 -25 14
-110 7 -110 -9z"/>
<path d="M5470 1580 c0 -5 -16 -10 -35 -10 -19 0 -35 -3 -35 -6 0 -13 69 -74
84 -74 9 0 16 -4 16 -10 0 -6 30 -10 69 -10 42 0 71 -4 73 -11 3 -8 86 -12
273 -13 205 -1 269 -4 272 -13 6 -16 83 -17 118 -1 16 7 25 19 25 34 0 12 3
29 6 38 4 11 1 16 -10 16 -9 0 -16 -4 -16 -10 0 -18 -20 -11 -47 16 -26 26
-27 26 -135 19 -93 -6 -109 -5 -114 9 -5 12 -20 16 -64 16 -32 0 -60 -4 -62
-10 -1 -5 -45 -13 -95 -16 -51 -4 -93 -11 -93 -15 0 -16 -68 -10 -74 6 -3 8
-12 15 -20 15 -8 0 -17 6 -19 13 -4 10 -6 10 -6 0 -1 -7 -7 -13 -15 -13 -8 0
-16 -5 -18 -11 -6 -18 -48 12 -48 33 0 10 -7 18 -15 18 -8 0 -15 -4 -15 -10z"/>
<path d="M5360 1400 c-9 -13 -26 -20 -46 -20 -18 0 -39 -6 -46 -14 -8 -7 -24
-17 -36 -20 -12 -4 -22 -12 -22 -17 0 -5 -9 -9 -21 -9 -25 0 -60 -31 -41 -38
7 -2 19 -10 26 -18 8 -8 17 -14 21 -14 8 0 35 27 35 35 0 4 6 13 14 21 17 16
136 20 136 4 0 -5 20 -10 44 -10 24 0 46 -5 48 -11 14 -42 502 -42 516 -1 5
15 102 16 102 2 0 -5 11 -10 25 -10 14 0 25 5 25 10 0 6 7 10 14 10 8 0 27 11
42 25 15 14 35 25 45 25 24 0 25 16 2 24 -23 9 -243 -5 -243 -15 0 -5 -30 -9
-67 -9 -38 -1 -99 -5 -138 -11 -83 -12 -209 -11 -213 2 -2 5 -19 9 -38 9 -21
0 -43 8 -56 20 -13 12 -29 18 -39 15 -11 -4 -26 2 -38 14 -26 26 -33 26 -51 1z"/>
<path d="M5970 1210 c0 -5 -7 -10 -15 -10 -8 0 -15 -4 -15 -10 0 -5 11 -10 25
-10 18 0 25 5 25 20 0 11 -4 20 -10 20 -5 0 -10 -4 -10 -10z"/>
<path d="M5330 1190 c0 -5 7 -10 15 -10 8 0 15 5 15 10 0 6 -7 10 -15 10 -8 0
-15 -4 -15 -10z"/>
<path d="M5374 1184 c3 -9 6 -18 6 -20 0 -2 11 -4 25 -4 18 0 25 5 25 20 0 16
-7 20 -31 20 -24 0 -30 -3 -25 -16z"/>
<path d="M5450 1140 c0 -5 7 -10 15 -10 8 0 15 -6 15 -14 0 -9 9 -14 20 -13
24 2 26 13 6 33 -17 16 -56 19 -56 4z"/>
<path d="M5820 1144 c0 -3 7 -12 15 -20 12 -12 18 -12 35 -2 29 19 25 28 -15
28 -19 0 -35 -3 -35 -6z"/>
</g>
</svg>
