<svg width="155" height="64" viewBox="0 0 155 64" fill="none" xmlns="http://www.w3.org/2000/svg">
<path fill-rule="evenodd" clip-rule="evenodd" d="M103.239 24.5198H113.341L115.421 24.9511L117.204 25.6701L118.689 26.5328L119.729 28.1145L120.472 29.6961L120.918 30.8464L121.066 31.7091V39.6619L120.918 40.6239L120.324 41.6305L119.284 42.4932L118.244 42.9245L117.352 43.3559L117.204 43.4997V44.2186L117.501 44.65L117.798 45.0813L118.244 46.0879L122.255 60.8979H116.015L112.747 47.2382H108.736V60.8979H103.239V45.6565L102.793 45.0813L102.05 44.5062L101.456 44.2186L101.159 44.0748V43.6435L102.793 42.2056L103.239 41.7742V24.5832V24.5198ZM108.736 30.2713V41.7742H113.044L113.49 41.6305L114.233 41.1991L114.827 40.6239L115.124 40.0488L115.57 39.3022V32.5719L115.421 32.1405L115.273 31.8529L114.827 31.2778L114.381 30.8464L113.638 30.2713H108.736Z" fill="white" stroke="white"/>
<path fill-rule="evenodd" clip-rule="evenodd" d="M94.9127 24.5198C96.4085 25.2221 99.4417 27.8065 99.6087 32.5258C99.7756 37.2451 99.7478 40.7659 99.713 41.9363L98.2521 43.6218V44.0432L99.713 45.5882V53.7347C99.5739 55.4201 98.3356 59.2125 94.4953 60.8979H91.7821C90.2516 60.1488 87.1488 57.6674 86.9819 53.7347V45.4478L85.5209 43.9027V43.4814L86.9819 41.9363V32.1044C87.1558 30.138 88.3593 25.8682 91.7821 24.5198H94.9127ZM93.9736 29.9976H92.4083C91.4065 30.1099 90.9473 31.8235 90.8429 32.6662V41.515L90.7386 41.7959L89.382 43.3409V43.6218L90.3212 44.4646L90.7386 45.3073V52.611L90.9473 53.7347C91.0308 54.5212 91.9561 55.0924 92.4083 55.2797H94.2866C94.871 55.1673 95.3649 54.0156 95.5389 53.4538V45.3073L94.391 44.0432L93.9736 43.9027V43.3409L95.5389 41.7959V31.964C95.3719 31.065 94.4258 30.2785 93.9736 29.9976Z" fill="white" stroke="white"/>
<path d="M84.1523 24.5198H72.4248V24.5627V41.918L71.9983 42.4932L70.9322 43.6435V44.0748H71.1454L71.9983 44.7938L72.4248 45.5127V60.8979H76.4761V46.0879L76.2629 45.5127H81.8068L81.7002 45.2251L81.2738 44.65L80.5275 43.7873V43.3559L81.0605 42.9245L81.7002 42.3494L82.0201 41.4867V40.0488H76.4761V29.9837H84.1523V24.5198Z" fill="white" stroke="white"/>
<path d="M137.783 37.0204H133.617V32.5258L133.513 31.964L133.305 31.2617L133.097 30.8403L132.576 30.2785L132.055 29.8571H131.014L130.389 29.9976L129.66 30.6998L129.243 31.4021L129.035 32.2449L128.931 32.9471V41.515L128.827 41.7959L128.306 42.6386L127.577 43.06V43.6218L128.098 44.0432L128.618 44.4646L128.931 45.3073V51.9087L129.035 53.4538L129.243 54.156L129.764 54.8583L130.389 55.4201H131.743L132.263 55.2797L132.784 54.8583L133.617 53.529V45.3073H131.326L131.222 44.8859L130.805 44.3241L129.868 43.6218V43.2005L130.389 42.7791L131.222 41.7959L131.326 41.0936V39.97H137.783V41.6554L137.575 42.0768L137.054 42.7791L136.325 43.3409V43.9027L137.054 44.4646L137.679 45.1668L137.783 45.7287V53.7347L137.679 54.2965L137.366 55.7011L136.742 57.3865L135.908 58.6506L134.971 59.7743L132.992 60.8979H130.493L129.347 60.7575L127.993 59.7743L126.952 58.5102L125.911 56.6842L125.286 54.9988L125.077 53.8751V47.6951V45.1668L124.765 44.605L123.619 43.9027V43.4814L123.932 43.2005L124.973 41.9363L125.077 41.515V31.5426L125.182 30.8403L125.39 29.8571L125.911 28.593L126.952 27.048L128.306 25.503L130.076 24.5198H132.368L132.888 24.6602L133.617 25.0816L134.971 25.9243L136.013 27.1884L137.054 29.1548L137.575 30.6998L137.783 32.3853V37.0204Z" fill="white" stroke="white"/>
<path d="M152.373 24.5198H140.645V41.7742L140.539 41.918L139.153 43.4997V44.0748H139.259L140.219 44.7938L140.645 45.5127V60.8979H152.373V55.6354H144.697V45.9441L144.483 45.5127H150.027L149.708 44.7938L148.748 43.931V43.3559L149.494 42.7807L150.241 41.6305V40.0488H144.697V29.9837H152.373V24.5198Z" fill="white" stroke="white"/>
<path d="M72.6361 5.25424H70.9322L71.703 11.2768V12.0981L71.2568 12.7004L71.9465 13.4121L72.0276 13.9596L72.6361 19.1062H74.1778L74.7052 13.1384L74.2589 12.5909V12.4266L74.9081 11.7149H74.9892V11.9886L74.5024 12.4266V12.5361L75.0298 13.0836L75.192 13.2479L75.8817 19.1062H77.3828L77.9914 13.8501L78.0319 13.4669L77.9508 13.1384L77.5857 12.7004V12.4814L78.0725 12.0981L78.1942 11.8791L78.965 5.25424H78.9245H77.3423L76.6931 11.8791L76.2469 12.4814L76.1252 12.3719L76.4497 11.9886L76.4903 11.8244L75.8006 5.25424H74.0967L73.5287 11.6054L73.407 11.8791L72.9201 12.4814L72.839 12.3719L73.1636 11.9886L73.2853 11.8244V11.6054L72.6361 5.25424Z" fill="white" stroke="white"/>
<path fill-rule="evenodd" clip-rule="evenodd" d="M79.4846 19.1063H81.7999L82.3209 15.9855H84.6941L85.215 19.1063H87.5174L86.5463 13.4669L86.4306 13.2479L85.6202 12.5909V12.3719L86.0833 12.0434L86.199 11.9339L85.0414 5.25427H81.9157L80.758 11.7696L80.7001 11.8791L79.8898 12.5362V12.7004L80.5265 13.1384V13.4122L79.4846 19.1063ZM83.6522 8.70358H83.4206L83.247 10.2092L83.0733 11.7149L82.9576 11.8244L82.0315 12.3719V12.6457L82.263 12.8099L82.6103 13.0837V13.4122V13.9049H84.3468V13.3574L84.1152 13.0837L83.7679 12.7552L83.3049 12.5909V12.3719L84.0574 11.7696L83.6522 8.70358Z" fill="white" stroke="white"/>
<path fill-rule="evenodd" clip-rule="evenodd" d="M88.8289 5.25427H92.6756L93.4676 5.41853L94.1464 5.69228L94.7121 6.02079L95.1081 6.62305L95.391 7.22531L95.5607 7.66332L95.6172 7.99182V11.0201L95.5607 11.3864L95.3344 11.7696L94.9384 12.0981L94.5424 12.2624L94.203 12.4267L94.1464 12.4814V12.7552L94.2596 12.9194L94.3727 13.0837L94.5424 13.4669L96.0698 19.1063H93.6939L92.4494 13.9049H90.922V19.1063H88.8289V13.3027L88.6592 13.0837L88.3764 12.8647L88.1501 12.7552L88.037 12.7004V12.5362L88.6592 11.9886L88.8289 11.8244V5.27844V5.25427ZM90.922 7.44431V11.8244H92.5625L92.7322 11.7696L93.0151 11.6054L93.2413 11.3864L93.3545 11.1674L93.5242 10.8831V8.32033L93.4676 8.15607L93.411 8.04657L93.2413 7.82757L93.0716 7.66332L92.7888 7.44431H90.922Z" fill="white" stroke="white"/>
<path fill-rule="evenodd" clip-rule="evenodd" d="M97.3813 5.25427H101.228L102.02 5.41853L102.699 5.69228L103.265 6.02079L103.661 6.62305L103.943 7.22531L104.113 7.66332L104.17 7.99182V11.0201L104.113 11.3864L103.887 11.7696L103.491 12.0981L103.095 12.2624L102.755 12.4267L102.699 12.4814V12.7552L102.812 12.9194L102.925 13.0837L103.095 13.4669L104.622 19.1063H102.246L101.002 13.9049H99.4744V19.1063H97.3813V13.3027L97.2116 13.0837L96.9288 12.8647L96.7025 12.7552L96.5893 12.7004V12.5362L97.2116 11.9886L97.3813 11.8244V5.27844V5.25427ZM99.4744 7.44431V11.8244H101.115L101.285 11.7696L101.567 11.6054L101.794 11.3864L101.907 11.1674L102.077 10.8831V8.32033L102.02 8.15607L101.963 8.04657L101.794 7.82757L101.624 7.66332L101.341 7.44431H99.4744Z" fill="white" stroke="white"/>
<path fill-rule="evenodd" clip-rule="evenodd" d="M114.486 5.25427H118.333L119.125 5.41853L119.804 5.69228L120.369 6.02079L120.765 6.62305L121.048 7.22531L121.218 7.66332L121.274 7.99182V11.0201L121.218 11.3864L120.992 11.7696L120.596 12.0981L120.2 12.2624L119.86 12.4267L119.804 12.4814V12.7552L119.917 12.9194L120.03 13.0837L120.2 13.4669L121.727 19.1063H119.351L118.107 13.9049H116.579V19.1063H114.486V13.3027L114.316 13.0837L114.034 12.8647L113.807 12.7552L113.694 12.7004V12.5362L114.316 11.9886L114.486 11.8244V5.27844V5.25427ZM116.579 7.44431V11.8244H118.22L118.389 11.7696L118.672 11.6054L118.898 11.3864L119.012 11.1674L119.181 10.8831V8.32033L119.125 8.15607L119.068 8.04657L118.898 7.82757L118.729 7.66332L118.446 7.44431H116.579Z" fill="white" stroke="white"/>
<path fill-rule="evenodd" clip-rule="evenodd" d="M111.343 5.25427C111.911 5.52169 113.062 6.50577 113.125 8.30278C113.188 10.0998 113.178 11.4404 113.165 11.8861L112.61 12.5279V12.6884L113.165 13.2767V16.3787C113.112 17.0204 112.642 18.4645 111.185 19.1063H110.155C109.574 18.821 108.397 17.8762 108.334 16.3787V13.2232L107.779 12.6349V12.4744L108.334 11.8861V8.14233C108.4 7.39358 108.856 5.76771 110.155 5.25427H111.343ZM110.987 7.34009H110.393C110.013 7.38288 109.838 8.03537 109.799 8.35626V11.7257L109.759 11.8326L109.244 12.4209V12.5279L109.601 12.8488L109.759 13.1697V15.9508L109.838 16.3787C109.87 16.6782 110.221 16.8957 110.393 16.967H111.106C111.327 16.9242 111.515 16.4856 111.581 16.2717V13.1697L111.145 12.6884L110.987 12.6349V12.4209L111.581 11.8326V8.08885C111.517 7.74656 111.158 7.44706 110.987 7.34009Z" fill="white" stroke="white"/>
<path d="M107.244 5.25427H105.748V11.6349L105.708 11.8531L105.587 12.0167L105.142 12.3984V12.562L105.223 12.6166L105.425 12.7256L105.627 13.0528L105.748 13.4346V19.1063H107.244V13.4346L107.123 13.0528L106.961 12.8347L106.638 12.5075V12.3984L106.961 12.0712L107.244 11.7985V5.25427Z" fill="white" stroke="white"/>
<path d="M130.361 8.08885L130.401 8.67716H128.973L128.934 8.30278L128.894 7.98189L128.815 7.71447L128.656 7.44706L128.418 7.12616L128.18 7.07268H127.823L127.585 7.28661L127.387 7.55402L127.228 8.19582V8.78413L127.308 9.1585L127.427 9.63985L127.744 10.2816L128.775 11.6187L129.013 11.9396V12.207L128.894 12.2605V12.4209L129.013 12.5279L129.33 12.7953L129.727 13.1162L130.084 13.7045L130.322 14.4533L130.48 15.1486V16.0578L130.441 16.4321L130.401 16.8065L130.242 17.3948L130.004 17.9297L129.647 18.4645L129.211 18.8923L128.696 19.1063H127.704L127.189 18.9993L126.792 18.7319L126.277 18.2505L125.959 17.6088L125.722 16.967L125.563 16.2182L125.484 15.6299V15.0951H126.951L126.991 15.7369L127.07 16.1112L127.268 16.6461L127.744 17.2344H128.18L128.537 17.0204L128.894 16.5391C128.926 16.5391 128.96 16.2182 128.973 16.0578V15.7369L128.934 15.416L128.894 15.0951L128.815 14.7742L128.458 14.0789L128.022 13.4906L127.427 12.9558L126.951 12.6884L126.713 12.5279L126.515 12.4209L126.594 12.314L126.673 12.0466V11.8326L126.594 11.5652L126.396 11.2978L126.158 10.9234L125.92 10.3351L125.761 9.96074L125.642 9.26547V8.08885L125.682 7.55402L125.84 7.0192L126.197 6.27044L126.515 5.84258L126.753 5.57517L127.347 5.25427H128.537L128.973 5.41472L129.489 5.84258L129.846 6.37741L130.203 7.17965L130.361 8.08885Z" fill="white" stroke="white"/>
<path d="M124.209 5.25427H122.246V7.58777H123.454L123.53 6.97903L124.058 6.87758L124.436 8.19651V9.21108V10.4286H124.964V9.71836V9.10962V7.79069L124.889 7.08049L124.587 6.16738L124.209 5.25427Z" fill="white" stroke="white"/>
<mask id="path-15-inside-1_196_49" fill="white">
<path d="M50.7082 29.3802H55.9352L56.2067 29.5289L56.4782 30.124L56.2746 30.5702L55.9352 30.7934H50.7761L50.4367 30.5702L50.3009 30.3471V29.7521L50.5046 29.4545L50.7082 29.3802Z"/>
<path d="M29.5289 28.7851H35.231L35.5704 28.9339L35.8419 29.5289L35.6383 29.9752L35.3668 30.1983L34.8237 30.2727H31.3617L29.1895 30.1983L28.85 29.7521V29.2314L29.1895 28.8595L29.5289 28.7851Z"/>
<path d="M59.9402 26.3306L62.7913 26.5537L64.2847 26.7025L64.6241 26.8512L64.8278 27.2231L64.7599 27.7438L64.4883 28.0413H63.0628L60.3475 27.8182L59.6687 27.6694L59.3972 27.4463L59.3293 26.9256L59.5329 26.5537L59.6687 26.405L59.9402 26.3306Z"/>
<path d="M58.2432 22.8347L58.5826 22.9091L58.8541 23.281L58.922 23.8016L58.5826 24.1735L57.9037 24.6198L56.4782 25.5124L54.6454 26.6281L53.695 27.2231L53.5593 27.2975H53.0841L52.6768 26.7769L52.7447 26.2562L53.152 25.8843L56.5461 23.8016L57.8359 22.9835L58.2432 22.8347Z"/>
<path d="M56.1388 17.1818L56.5461 17.2562L56.8855 17.7025L56.9534 18L56.614 18.6694L56.1388 19.2645L55.3921 20.3058L54.4417 21.5703L53.695 22.6116L53.2877 22.9835L52.8126 22.9091L52.541 22.6116L52.4731 22.4628V22.0165L53.0841 21.124L54.0344 19.8595L54.7811 18.8182L55.3242 18.0744L55.9352 17.3306L56.1388 17.1818Z"/>
<path d="M60.6869 17.1818L61.0263 17.2562L61.3657 17.5537L61.5015 17.7769L61.4336 18.1488L60.9585 18.7438L59.8045 20.0083L59.2614 20.5289L58.8541 20.8265L58.4468 20.7521L58.1074 20.3058V19.8595L58.4468 19.3389L58.9899 18.8182L59.6687 18.0744L60.2118 17.5537L60.6869 17.1818Z"/>
<path d="M11.0648 61.6612H14.3232L14.5268 62.0331L14.5947 62.3306L14.3911 62.7025L14.1874 62.9256L13.9159 63H11.2006L10.8612 62.7769L10.6575 62.405L10.7254 61.9587L11.0648 61.6612Z"/>
<path d="M5.90577 61.6612H9.02836L9.23201 61.8843L9.36778 62.1818L9.29989 62.5537L9.02836 62.9256L8.82472 63H5.90577L5.56636 62.7025L5.49848 62.1074L5.70212 61.7355L5.90577 61.6612Z"/>
<path d="M37.4711 34.9587L37.8784 35.1074L38.0821 35.5537V45.1488L37.9463 45.5207L37.6748 45.6694H37.1996L36.9281 45.5207L36.8602 45.3719V35.405L37.1996 35.0331L37.4711 34.9587Z"/>
<path d="M39.5755 39.6446H49.3506L49.7578 40.0165V40.6859L49.4184 41.0578H39.5755L39.2361 40.7603L39.1003 40.314L39.2361 39.9421L39.5755 39.6446Z"/>
<path fill-rule="evenodd" clip-rule="evenodd" d="M41.6119 0L42.6981 0.297521L43.3769 0.743801L43.7842 1.26446L44.1915 2.15702L44.8024 4.16529L45.6849 7.21487L46.3637 9.52066L46.4316 9.89256H47.1783L48.0608 10.1901L48.6717 10.6364L49.2148 11.3058L49.6221 12.1983L49.8257 13.0165L49.8936 13.9835L49.6221 15.1736L49.2148 15.843L48.7396 16.3636L48.4681 16.438L48.8075 17.8512L50.233 22.6116L50.6403 24.0248L50.844 24.9917V25.5868L50.7082 26.3306L50.233 27.2231L49.69 27.7438L48.9433 28.1157L44.5309 29.6777L41.7477 30.6446L41.0689 30.7934H40.5258L39.847 30.6446L39.2361 30.2727L38.8288 29.9008L38.3536 29.0826L37.9463 27.8926L37.2675 25.5124L36.7244 23.7273L34.5522 24.4711H33.8733L33.6018 23.9504L33.3303 23.2066L32.9909 22.0909L31.1581 22.7603L23.9625 25.2893L18.0567 27.3719L15.2736 28.3388L11.7437 29.6033L10.9291 29.9008V30.4215L10.6575 30.7934L10.4539 30.8678L10.5218 31.5372L11.3364 34.5124L13.1013 34.6612L13.4407 34.8843L13.7801 36.0744L14.2553 38.3802L14.5947 39.5702L14.9341 40.314L15.4772 40.9091L16.0881 41.876L16.6312 43.0661L16.9027 43.8843L17.1743 45.1488L17.2421 45.6694V47.6033L16.9706 48.8678L16.6991 49.6859L16.2239 50.5041L15.6808 51.0248L14.7305 51.5454L13.848 51.843L13.0334 51.9917L12.2867 52.0661H11.2685L10.4539 51.9173L9.77507 51.6198L9.16413 51.1735L8.68896 50.5785L8.41743 49.8347V48.7934L8.48531 47.9008L8.28166 47.2314L7.94225 47.3058L6.85613 47.7521L5.83789 47.9752L4.81965 48.0496L3.39412 47.9008L2.308 47.5289L1.62918 47.157L1.01824 46.4876L0.475177 45.2975L0.203647 44.3306L0 43.0661V41.5785L0.203647 40.2397L0.610942 39.0496L1.22188 37.7851L1.90071 36.8182L2.44377 36.0744L2.78318 35.3306L3.12259 33.9917L3.80142 30.6446L3.93718 30.5702H4.61601L6.1773 30.719L7.46707 30.9421L6.85613 28.7851L5.63424 24.6198L5.49848 24.0248V23.5041L6.04154 23.1322L8.01013 22.4628H8.41743L8.82472 22.9835L10.2503 22.5372L13.5765 21.3471L17.4458 20.0083L20.3647 18.9669L23.7589 17.7769L26.542 16.8099L28.5785 16.0661L30.8186 15.3223L30.9544 15.2479L30.8186 14.5785L30.4792 13.3884V12.719L30.7508 12.4215L32.9909 11.6033H33.1266L32.7872 10.3388L32.1084 7.95868L31.6332 6.32231L31.5653 5.95041V5.13223L31.769 4.38843L32.1763 3.64463L32.7193 3.12397L33.6018 2.67769L37.1996 1.41322L40.3901 0.297521L41.1368 0.0743802L41.6119 0ZM41.9514 1.48761H41.2047L38.0142 2.60331L33.8055 4.09091L33.2624 4.46281L32.8551 5.13224V5.95042L32.9909 6.47108L33.1945 6.54546L35.1631 5.87604L42.3587 3.34711L43.0375 3.04959V2.75207L42.9017 2.38017L42.4944 1.78513L41.9514 1.48761ZM43.5127 4.4628H43.1733L39.5076 5.72726L36.1814 6.91734L33.5339 7.80991V8.18181L33.8734 9.44627L35.4347 14.7273L36.5208 18.4463L37.6069 22.0909L38.8288 26.3306L39.1682 26.4049L43.4448 24.9173L46.8389 23.7273L48.8754 22.9835V22.6116L47.5177 18L46.4316 14.281L44.9382 9.22313L44.2594 6.91734L43.5127 4.4628ZM49.4184 24.3967L49.1469 24.3223L47.8571 24.7686L44.463 25.9587L39.4397 27.7438L39.3718 28.1157L39.5076 28.4876L39.7791 28.9339L40.3222 29.3802H41.0689L41.3404 29.3058L43.92 28.4132L47.5177 27.1488L48.8754 26.6281L49.2827 26.2562L49.5542 25.5124V24.9917L49.4184 24.3967ZM47.2462 11.3802L46.9068 11.3058V11.5289L47.1783 12.4959L47.6535 14.0579L47.9929 15.0992H48.1966L48.6038 14.1322V13.3884L48.1966 12.1983L47.7893 11.6777L47.2462 11.3802ZM33.6697 13.0165L33.3982 12.9422L32.9909 13.0909L31.9726 13.4628L31.9048 13.7603L32.0405 14.1322L32.7872 16.7355L33.4661 18.967L34.2806 21.7934L34.6201 22.8347L34.8237 22.9091L36.2492 22.3884L36.3171 22.0909L35.9098 20.6777L35.0952 18L34.4164 15.6198L33.6697 13.0165ZM31.4975 16.6612L31.2938 16.5868L29.5968 17.1818L22.1976 19.7851L17.7852 21.3471L15.2057 22.2397L11.0648 23.7273L10.386 24.0248L9.70719 24.6942L9.36777 25.0661L9.77507 26.4793L10.3181 28.4132L10.4539 28.562L10.6575 28.4876L15.5451 26.7769L18.9392 25.5868L29.461 21.8678L32.5157 20.8264L32.6515 20.6777L32.312 19.4876L31.4975 16.6612ZM7.53495 24.1735H7.19553L7.05977 24.2479V24.6942L7.26342 24.9917H8.01012L7.87436 24.5455L7.53495 24.1735ZM7.87436 25.2149H7.26342V25.5868L7.46707 26.2562H7.67072L8.01013 25.6611L8.07801 25.2892L7.87436 25.2149ZM8.07802 26.5537H7.94226L7.73861 26.7769V27.2231L7.87437 27.4463L8.01014 27.2231L8.07802 26.5537ZM8.62108 26.7025L8.48531 26.4793L8.34955 27L8.1459 28.2645L8.21378 28.8595L8.5532 29.9752H8.96049L9.2999 29.8265L9.36779 29.4546L9.02837 28.3389L8.62108 26.7025ZM10.0466 31.1653L9.7072 31.0909L9.57143 31.1653L8.89261 31.3884L8.68896 31.5372L9.2999 31.9091V32.1322L8.96049 34.7355V35.3306H9.09625L9.77508 34.9587L10.8612 34.6612L10.9291 34.438L10.5218 32.8017L10.0466 31.1653ZM5.97365 31.7603L5.36271 31.6859L5.49847 31.8347L6.65247 32.2066L7.3313 32.3554L7.19553 34.7355L6.99189 36.2231L6.10942 36.3719L6.38094 36.5206H8.07801L8.21377 36.2975L8.4853 35.1074L8.8926 32.9504V32.1322L7.05977 31.9835L5.97365 31.7603ZM4.54813 31.3884L4.34448 31.314L4.07295 31.5372L3.80142 32.5041L3.52989 34.2149V34.9587H3.59777L3.80142 33.9173L4.2766 32.3554L4.54813 31.3884ZM4.48025 36.6694L3.86931 36.4463L3.80143 36.5206L3.86931 36.8925L4.34449 37.0413L3.73354 36.9669L3.5299 37.0413L3.59778 37.4132L4.20872 37.7851L4.2766 37.8595L3.59778 37.4876L3.32625 37.4132L3.1226 37.7107L2.78319 38.0826L2.30801 38.6777L2.03648 39.1983L2.10436 39.6446L2.37589 40.1653L2.85107 40.6115L3.5299 40.9834L4.20872 41.1322L4.48025 40.6859L5.09119 39.719L5.49849 38.9008L5.90578 37.7107L5.97366 37.0413L5.8379 36.9669L5.22696 36.8925L4.48025 36.6694ZM1.90071 39.719L1.76494 39.5702L1.62918 39.7934V40.6859L1.76494 41.1322L2.10435 41.5041L2.64741 41.8016L3.32624 41.876L3.25836 41.5041L2.64741 40.9835L2.24012 40.4628L1.90071 39.719ZM5.36271 40.9835L5.29483 40.686L5.15906 41.0579H5.0233L4.88753 41.281L4.20871 41.876L3.25835 42.2479L2.98682 42.6198L2.71529 43.1405L2.308 43.8099L1.9007 44.3306H1.56129L1.08611 44.1074L0.882466 44.1818L1.35764 44.5537H1.96859L2.17223 44.405L3.19047 42.843L3.32624 42.5455L3.52988 42.4711L4.20871 42.0992L4.88753 41.6529L5.36271 40.9835ZM6.78824 43.2149L5.90577 43.1405L4.616 43.3636L4.00506 43.5868L2.98682 44.1074L2.44376 44.6281L2.10435 45L1.76494 45.2975L1.22188 45.4463L0.882466 45.2231L1.01823 45.6694L1.62917 46.4876L2.24012 46.9339L2.57953 47.0083L2.24012 46.4876L2.17223 45.8182L2.308 45.2975L2.57953 44.9256V45.8182L2.64741 45.9669L2.85106 46.0413L3.05471 45.1487L3.32624 44.5537L3.93718 44.7768L4.88753 45.4463L5.97365 46.0413L6.72036 46.2645H7.46707L7.87436 46.1901V44.7768L8.01013 44.2562L8.07801 43.8843L7.67071 43.8099L6.24518 43.6611L5.63424 43.5124L6.78824 43.3636V43.2149ZM6.24518 39.9422L5.77 39.8678L5.36271 40.3884L5.77 40.314L6.1773 40.1653L6.24518 39.9422ZM6.85612 39.0496V38.8265L6.51671 39.124L6.04153 39.1984L5.97365 39.3471L6.04153 39.4959H6.44883L6.51671 39.2727H6.65248L6.85612 39.0496ZM7.05978 38.3058V38.0826L6.5846 38.3058L6.44884 38.6033H6.72037L7.05978 38.3058ZM8.07802 37.6364L7.94226 37.562L7.87437 37.6364L7.67073 38.2314V39.719L7.53496 40.0909L6.85614 40.4628L6.58461 40.7603H7.60284L7.73861 40.8347L7.87437 41.281L7.94226 42.1735L7.60284 42.3223L6.51672 42.3967V42.4711L7.12767 42.6198L7.87437 42.9917H8.1459L8.28167 42.0992V40.1653L8.1459 38.9752L8.07802 37.6364ZM8.75684 36.8926H8.68896L8.62108 37.562V39.0496L8.75684 40.7603L9.43567 40.6859L9.50355 40.3884L9.23202 39.5702L8.96049 38.4545L8.75684 36.8926ZM12.9656 35.0331L12.6261 34.9587L11.4043 35.0331L10.5897 35.1818L9.50355 35.6281L9.23202 36L10.3181 35.7769H11.2685L12.0831 38.3802L12.2188 39.1983L11.8794 39.3471L10.4539 39.719V39.7934L11.54 39.719L13.9838 39.2727V38.9752L13.1692 35.405L12.9656 35.0331ZM12.0152 41.2066L11.6758 40.9835L11.2685 41.5785L10.997 41.7273V41.9504V42.0992L10.6576 41.6529L10.0466 41.4297L9.43567 41.3554V41.4297L10.2503 41.876L10.9291 42.4711L11.1327 43.1405L10.8612 42.9173L9.84297 42.1735L9.63932 42.2479L10.3181 42.7686L11.0649 43.5124L11.2685 44.2562V45.3719L11.1327 45.9669L10.5897 47.0826L10.3181 47.9008L10.386 48.4958L10.5218 48.2727L10.9291 47.3801L11.2685 47.0082L12.0831 46.6363H12.6261L12.8298 46.3388L12.9656 45.0744L13.0334 45.3719L13.1692 45.5206V44.4049L13.1013 43.7355L12.8977 42.9173L12.4904 41.9504L12.0152 41.2066ZM11.7437 47.9752L11.6758 47.7521L11.54 47.9008L10.9291 48.6446L10.6575 49.0909L10.4539 49.8347L10.5218 50.2066L10.6575 49.9091L10.9291 49.1653L11.3364 48.6446L11.7437 47.9752ZM13.7801 39.9421H13.1013L11.9473 40.314L11.8794 40.4628L12.4225 41.0578L12.9656 41.9504L13.305 42.9173L13.5086 43.9587V45.3719L13.3728 45.8925L13.4407 46.1157L13.7801 45.595L13.9838 44.8512H14.0517V45.2975L13.848 46.1157L13.7801 46.6363L14.1874 48.1983L14.7984 48.4215L15.7487 48.5702L15.4772 48.7934L14.5947 49.0909L13.0334 49.1653V49.2397L13.7801 49.3884L14.7305 49.4628L15.3414 49.314L16.0203 48.9421L16.4954 48.4215L16.8349 47.5289V46.0413L16.767 45.0744L16.5633 44.1074L16.2239 43.1405L15.6808 42.0248L15.002 40.9835L14.459 40.314L13.7801 39.9421Z"/>
<path fill-rule="evenodd" clip-rule="evenodd" d="M59.1256 31.9091H33.1945L32.923 32.0579L32.7194 32.5785V33.6198H30.3435L29.8683 33.6942L29.8004 33.7686L29.5968 34.9587L15.3414 35.0331L15.1378 35.1818L14.9341 35.5537V36.1488L15.002 36.6694L15.2736 37.8595L15.7487 39.2727L16.3597 40.5372L17.2422 41.876L18.0567 42.7686L18.8713 43.5868L19.8217 44.3306L20.9757 45.0744L22.0618 45.595L23.4195 46.1157L25.0486 46.562L27.0851 46.9339L29.8004 47.0826L32.6515 47.157L32.7194 48.124L32.8551 48.5702L33.1945 48.7934H35.1631V51.6198L35.231 52.0661L35.3668 52.3636L35.5704 52.438H38.2178L38.0142 52.7355L37.4032 53.7769L36.7923 55.2645L36.4529 56.5289L36.385 57.0496L31.5654 57.124L30.7508 57.3471L30.0041 57.719L29.1216 58.3884L28.3749 59.281L27.8318 60.3967L27.4924 61.5868L16.2239 61.6612L15.9524 62.0331V62.5537L16.156 62.8512L16.6991 63H64.3526L64.5562 62.9256L64.8278 62.4793V61.7355L64.6241 60.6942L64.0811 59.5041L63.538 58.6859L63.1986 58.3884L62.5876 57.8678L61.773 57.4215L60.7548 57.124L56.003 57.0496L55.8673 56.3802L55.46 55.0413L54.849 53.6281L54.1702 52.438H56.6819L56.9534 52.3636L57.157 51.9917L57.2249 48.8678L59.0578 48.7934L59.2614 48.719L59.6008 48.3471V47.0826H62.1125L62.384 47.0083L62.6555 46.562L62.7234 45.1488L63.4022 45.0744L64.0811 44.8512L65.1672 44.2562L65.7781 43.6612L66.3212 42.9174L66.7963 41.876L67 40.7603V39.9422L66.8642 39.124L66.5927 38.3058L66.0496 37.3388L65.4387 36.6694L64.692 36.1488L63.6059 35.7025L62.7913 35.6281L62.7234 35.5537L62.6555 34.0661L62.3161 33.6198L59.6687 33.5455L59.6008 32.3554L59.465 32.1322H59.3293V31.9835L59.1256 31.9091ZM58.311 33.3223H34.077L34.0091 33.3967V47.3058L34.077 47.3802H58.311L58.3789 47.3058V33.3967L58.311 33.3223ZM37.4711 34.9587L37.8784 35.1074L38.0821 35.5537V45.1488L37.9463 45.5207L37.6748 45.6694H37.1996L36.9281 45.5207L36.8602 45.3719V35.405L37.1996 35.0331L37.4711 34.9587ZM39.5755 39.6446H49.3506L49.7578 40.0165V40.6859L49.4184 41.0578H39.5755L39.2361 40.7603L39.1003 40.314L39.2361 39.9421L39.5755 39.6446ZM59.6687 35.033H61.3657L61.4336 35.7768V45.595L61.3657 45.6694H59.6687L59.6008 45.595V35.1818L59.6687 35.033ZM63.3343 37.1157L62.7234 37.0413L62.6555 37.1157V43.6611L62.7234 43.7355H63.0628L64.081 43.2892L64.7599 42.843L65.0314 42.4711L65.4387 41.8016L65.7102 40.8347V39.8678L65.5745 39.3471L65.235 38.5289L64.692 37.8595L64.1489 37.4132L63.3343 37.1157ZM36.5208 48.7934H55.8673V51.0248H36.5208L36.4529 50.9504V48.8678L36.5208 48.7934ZM32.6515 35.033H30.9544V45.6694L32.3799 45.7438L32.7194 45.6694V35.1074L32.6515 35.033ZM22.1297 36.3719H27.0172L29.6646 36.4463V45.6694H28.6464L26.2026 45.3719L24.5056 45L23.1479 44.5537L21.7903 43.9587L20.4326 43.1405L19.3465 42.2479L18.0567 40.8347L17.3779 39.719L16.8348 38.5289L16.2918 36.7438V36.4463L22.1297 36.3719ZM46.4316 55.562H45.8207L44.8703 55.7107L43.9878 56.0083L43.1733 56.4545L42.5623 56.9008V57.124H49.8936V57.0496L49.4184 56.6033L48.536 56.0826L47.5177 55.7107L46.4316 55.562ZM39.9149 52.438H52.4731L53.152 53.3306L53.7629 54.3719L54.3739 55.7851L54.7133 57.0496L54.4417 57.124H51.7943L51.4549 56.7521L50.6403 55.9339L49.69 55.2645L48.536 54.6694L47.925 54.4463L47.1104 54.2975L45.9564 54.2231L44.8024 54.3719L43.7842 54.6694L42.8338 55.1157L42.0871 55.6364L41.4083 56.2314L40.7974 56.8264L40.5258 57.124H37.7427L37.6748 56.8264L38.1499 55.3388L38.8288 53.9256L39.3718 53.1074L39.9149 52.438ZM60.5512 58.5372H31.769L31.0902 58.6859L30.1398 59.281L29.6646 59.8016L29.1895 60.4711L28.9179 61.2149L28.85 61.5868L29.2573 61.6611H62.927L63.4701 61.5868V61.2892L63.1986 60.6198L62.7234 59.8016L62.0446 59.1322L61.23 58.6859L60.5512 58.5372Z"/>
</mask>
<path d="M50.7082 29.3802H55.9352L56.2067 29.5289L56.4782 30.124L56.2746 30.5702L55.9352 30.7934H50.7761L50.4367 30.5702L50.3009 30.3471V29.7521L50.5046 29.4545L50.7082 29.3802Z" fill="white"/>
<path d="M29.5289 28.7851H35.231L35.5704 28.9339L35.8419 29.5289L35.6383 29.9752L35.3668 30.1983L34.8237 30.2727H31.3617L29.1895 30.1983L28.85 29.7521V29.2314L29.1895 28.8595L29.5289 28.7851Z" fill="white"/>
<path d="M59.9402 26.3306L62.7913 26.5537L64.2847 26.7025L64.6241 26.8512L64.8278 27.2231L64.7599 27.7438L64.4883 28.0413H63.0628L60.3475 27.8182L59.6687 27.6694L59.3972 27.4463L59.3293 26.9256L59.5329 26.5537L59.6687 26.405L59.9402 26.3306Z" fill="white"/>
<path d="M58.2432 22.8347L58.5826 22.9091L58.8541 23.281L58.922 23.8016L58.5826 24.1735L57.9037 24.6198L56.4782 25.5124L54.6454 26.6281L53.695 27.2231L53.5593 27.2975H53.0841L52.6768 26.7769L52.7447 26.2562L53.152 25.8843L56.5461 23.8016L57.8359 22.9835L58.2432 22.8347Z" fill="white"/>
<path d="M56.1388 17.1818L56.5461 17.2562L56.8855 17.7025L56.9534 18L56.614 18.6694L56.1388 19.2645L55.3921 20.3058L54.4417 21.5703L53.695 22.6116L53.2877 22.9835L52.8126 22.9091L52.541 22.6116L52.4731 22.4628V22.0165L53.0841 21.124L54.0344 19.8595L54.7811 18.8182L55.3242 18.0744L55.9352 17.3306L56.1388 17.1818Z" fill="white"/>
<path d="M60.6869 17.1818L61.0263 17.2562L61.3657 17.5537L61.5015 17.7769L61.4336 18.1488L60.9585 18.7438L59.8045 20.0083L59.2614 20.5289L58.8541 20.8265L58.4468 20.7521L58.1074 20.3058V19.8595L58.4468 19.3389L58.9899 18.8182L59.6687 18.0744L60.2118 17.5537L60.6869 17.1818Z" fill="white"/>
<path d="M11.0648 61.6612H14.3232L14.5268 62.0331L14.5947 62.3306L14.3911 62.7025L14.1874 62.9256L13.9159 63H11.2006L10.8612 62.7769L10.6575 62.405L10.7254 61.9587L11.0648 61.6612Z" fill="white"/>
<path d="M5.90577 61.6612H9.02836L9.23201 61.8843L9.36778 62.1818L9.29989 62.5537L9.02836 62.9256L8.82472 63H5.90577L5.56636 62.7025L5.49848 62.1074L5.70212 61.7355L5.90577 61.6612Z" fill="white"/>
<path d="M37.4711 34.9587L37.8784 35.1074L38.0821 35.5537V45.1488L37.9463 45.5207L37.6748 45.6694H37.1996L36.9281 45.5207L36.8602 45.3719V35.405L37.1996 35.0331L37.4711 34.9587Z" fill="white"/>
<path d="M39.5755 39.6446H49.3506L49.7578 40.0165V40.6859L49.4184 41.0578H39.5755L39.2361 40.7603L39.1003 40.314L39.2361 39.9421L39.5755 39.6446Z" fill="white"/>
<path fill-rule="evenodd" clip-rule="evenodd" d="M41.6119 0L42.6981 0.297521L43.3769 0.743801L43.7842 1.26446L44.1915 2.15702L44.8024 4.16529L45.6849 7.21487L46.3637 9.52066L46.4316 9.89256H47.1783L48.0608 10.1901L48.6717 10.6364L49.2148 11.3058L49.6221 12.1983L49.8257 13.0165L49.8936 13.9835L49.6221 15.1736L49.2148 15.843L48.7396 16.3636L48.4681 16.438L48.8075 17.8512L50.233 22.6116L50.6403 24.0248L50.844 24.9917V25.5868L50.7082 26.3306L50.233 27.2231L49.69 27.7438L48.9433 28.1157L44.5309 29.6777L41.7477 30.6446L41.0689 30.7934H40.5258L39.847 30.6446L39.2361 30.2727L38.8288 29.9008L38.3536 29.0826L37.9463 27.8926L37.2675 25.5124L36.7244 23.7273L34.5522 24.4711H33.8733L33.6018 23.9504L33.3303 23.2066L32.9909 22.0909L31.1581 22.7603L23.9625 25.2893L18.0567 27.3719L15.2736 28.3388L11.7437 29.6033L10.9291 29.9008V30.4215L10.6575 30.7934L10.4539 30.8678L10.5218 31.5372L11.3364 34.5124L13.1013 34.6612L13.4407 34.8843L13.7801 36.0744L14.2553 38.3802L14.5947 39.5702L14.9341 40.314L15.4772 40.9091L16.0881 41.876L16.6312 43.0661L16.9027 43.8843L17.1743 45.1488L17.2421 45.6694V47.6033L16.9706 48.8678L16.6991 49.6859L16.2239 50.5041L15.6808 51.0248L14.7305 51.5454L13.848 51.843L13.0334 51.9917L12.2867 52.0661H11.2685L10.4539 51.9173L9.77507 51.6198L9.16413 51.1735L8.68896 50.5785L8.41743 49.8347V48.7934L8.48531 47.9008L8.28166 47.2314L7.94225 47.3058L6.85613 47.7521L5.83789 47.9752L4.81965 48.0496L3.39412 47.9008L2.308 47.5289L1.62918 47.157L1.01824 46.4876L0.475177 45.2975L0.203647 44.3306L0 43.0661V41.5785L0.203647 40.2397L0.610942 39.0496L1.22188 37.7851L1.90071 36.8182L2.44377 36.0744L2.78318 35.3306L3.12259 33.9917L3.80142 30.6446L3.93718 30.5702H4.61601L6.1773 30.719L7.46707 30.9421L6.85613 28.7851L5.63424 24.6198L5.49848 24.0248V23.5041L6.04154 23.1322L8.01013 22.4628H8.41743L8.82472 22.9835L10.2503 22.5372L13.5765 21.3471L17.4458 20.0083L20.3647 18.9669L23.7589 17.7769L26.542 16.8099L28.5785 16.0661L30.8186 15.3223L30.9544 15.2479L30.8186 14.5785L30.4792 13.3884V12.719L30.7508 12.4215L32.9909 11.6033H33.1266L32.7872 10.3388L32.1084 7.95868L31.6332 6.32231L31.5653 5.95041V5.13223L31.769 4.38843L32.1763 3.64463L32.7193 3.12397L33.6018 2.67769L37.1996 1.41322L40.3901 0.297521L41.1368 0.0743802L41.6119 0ZM41.9514 1.48761H41.2047L38.0142 2.60331L33.8055 4.09091L33.2624 4.46281L32.8551 5.13224V5.95042L32.9909 6.47108L33.1945 6.54546L35.1631 5.87604L42.3587 3.34711L43.0375 3.04959V2.75207L42.9017 2.38017L42.4944 1.78513L41.9514 1.48761ZM43.5127 4.4628H43.1733L39.5076 5.72726L36.1814 6.91734L33.5339 7.80991V8.18181L33.8734 9.44627L35.4347 14.7273L36.5208 18.4463L37.6069 22.0909L38.8288 26.3306L39.1682 26.4049L43.4448 24.9173L46.8389 23.7273L48.8754 22.9835V22.6116L47.5177 18L46.4316 14.281L44.9382 9.22313L44.2594 6.91734L43.5127 4.4628ZM49.4184 24.3967L49.1469 24.3223L47.8571 24.7686L44.463 25.9587L39.4397 27.7438L39.3718 28.1157L39.5076 28.4876L39.7791 28.9339L40.3222 29.3802H41.0689L41.3404 29.3058L43.92 28.4132L47.5177 27.1488L48.8754 26.6281L49.2827 26.2562L49.5542 25.5124V24.9917L49.4184 24.3967ZM47.2462 11.3802L46.9068 11.3058V11.5289L47.1783 12.4959L47.6535 14.0579L47.9929 15.0992H48.1966L48.6038 14.1322V13.3884L48.1966 12.1983L47.7893 11.6777L47.2462 11.3802ZM33.6697 13.0165L33.3982 12.9422L32.9909 13.0909L31.9726 13.4628L31.9048 13.7603L32.0405 14.1322L32.7872 16.7355L33.4661 18.967L34.2806 21.7934L34.6201 22.8347L34.8237 22.9091L36.2492 22.3884L36.3171 22.0909L35.9098 20.6777L35.0952 18L34.4164 15.6198L33.6697 13.0165ZM31.4975 16.6612L31.2938 16.5868L29.5968 17.1818L22.1976 19.7851L17.7852 21.3471L15.2057 22.2397L11.0648 23.7273L10.386 24.0248L9.70719 24.6942L9.36777 25.0661L9.77507 26.4793L10.3181 28.4132L10.4539 28.562L10.6575 28.4876L15.5451 26.7769L18.9392 25.5868L29.461 21.8678L32.5157 20.8264L32.6515 20.6777L32.312 19.4876L31.4975 16.6612ZM7.53495 24.1735H7.19553L7.05977 24.2479V24.6942L7.26342 24.9917H8.01012L7.87436 24.5455L7.53495 24.1735ZM7.87436 25.2149H7.26342V25.5868L7.46707 26.2562H7.67072L8.01013 25.6611L8.07801 25.2892L7.87436 25.2149ZM8.07802 26.5537H7.94226L7.73861 26.7769V27.2231L7.87437 27.4463L8.01014 27.2231L8.07802 26.5537ZM8.62108 26.7025L8.48531 26.4793L8.34955 27L8.1459 28.2645L8.21378 28.8595L8.5532 29.9752H8.96049L9.2999 29.8265L9.36779 29.4546L9.02837 28.3389L8.62108 26.7025ZM10.0466 31.1653L9.7072 31.0909L9.57143 31.1653L8.89261 31.3884L8.68896 31.5372L9.2999 31.9091V32.1322L8.96049 34.7355V35.3306H9.09625L9.77508 34.9587L10.8612 34.6612L10.9291 34.438L10.5218 32.8017L10.0466 31.1653ZM5.97365 31.7603L5.36271 31.6859L5.49847 31.8347L6.65247 32.2066L7.3313 32.3554L7.19553 34.7355L6.99189 36.2231L6.10942 36.3719L6.38094 36.5206H8.07801L8.21377 36.2975L8.4853 35.1074L8.8926 32.9504V32.1322L7.05977 31.9835L5.97365 31.7603ZM4.54813 31.3884L4.34448 31.314L4.07295 31.5372L3.80142 32.5041L3.52989 34.2149V34.9587H3.59777L3.80142 33.9173L4.2766 32.3554L4.54813 31.3884ZM4.48025 36.6694L3.86931 36.4463L3.80143 36.5206L3.86931 36.8925L4.34449 37.0413L3.73354 36.9669L3.5299 37.0413L3.59778 37.4132L4.20872 37.7851L4.2766 37.8595L3.59778 37.4876L3.32625 37.4132L3.1226 37.7107L2.78319 38.0826L2.30801 38.6777L2.03648 39.1983L2.10436 39.6446L2.37589 40.1653L2.85107 40.6115L3.5299 40.9834L4.20872 41.1322L4.48025 40.6859L5.09119 39.719L5.49849 38.9008L5.90578 37.7107L5.97366 37.0413L5.8379 36.9669L5.22696 36.8925L4.48025 36.6694ZM1.90071 39.719L1.76494 39.5702L1.62918 39.7934V40.6859L1.76494 41.1322L2.10435 41.5041L2.64741 41.8016L3.32624 41.876L3.25836 41.5041L2.64741 40.9835L2.24012 40.4628L1.90071 39.719ZM5.36271 40.9835L5.29483 40.686L5.15906 41.0579H5.0233L4.88753 41.281L4.20871 41.876L3.25835 42.2479L2.98682 42.6198L2.71529 43.1405L2.308 43.8099L1.9007 44.3306H1.56129L1.08611 44.1074L0.882466 44.1818L1.35764 44.5537H1.96859L2.17223 44.405L3.19047 42.843L3.32624 42.5455L3.52988 42.4711L4.20871 42.0992L4.88753 41.6529L5.36271 40.9835ZM6.78824 43.2149L5.90577 43.1405L4.616 43.3636L4.00506 43.5868L2.98682 44.1074L2.44376 44.6281L2.10435 45L1.76494 45.2975L1.22188 45.4463L0.882466 45.2231L1.01823 45.6694L1.62917 46.4876L2.24012 46.9339L2.57953 47.0083L2.24012 46.4876L2.17223 45.8182L2.308 45.2975L2.57953 44.9256V45.8182L2.64741 45.9669L2.85106 46.0413L3.05471 45.1487L3.32624 44.5537L3.93718 44.7768L4.88753 45.4463L5.97365 46.0413L6.72036 46.2645H7.46707L7.87436 46.1901V44.7768L8.01013 44.2562L8.07801 43.8843L7.67071 43.8099L6.24518 43.6611L5.63424 43.5124L6.78824 43.3636V43.2149ZM6.24518 39.9422L5.77 39.8678L5.36271 40.3884L5.77 40.314L6.1773 40.1653L6.24518 39.9422ZM6.85612 39.0496V38.8265L6.51671 39.124L6.04153 39.1984L5.97365 39.3471L6.04153 39.4959H6.44883L6.51671 39.2727H6.65248L6.85612 39.0496ZM7.05978 38.3058V38.0826L6.5846 38.3058L6.44884 38.6033H6.72037L7.05978 38.3058ZM8.07802 37.6364L7.94226 37.562L7.87437 37.6364L7.67073 38.2314V39.719L7.53496 40.0909L6.85614 40.4628L6.58461 40.7603H7.60284L7.73861 40.8347L7.87437 41.281L7.94226 42.1735L7.60284 42.3223L6.51672 42.3967V42.4711L7.12767 42.6198L7.87437 42.9917H8.1459L8.28167 42.0992V40.1653L8.1459 38.9752L8.07802 37.6364ZM8.75684 36.8926H8.68896L8.62108 37.562V39.0496L8.75684 40.7603L9.43567 40.6859L9.50355 40.3884L9.23202 39.5702L8.96049 38.4545L8.75684 36.8926ZM12.9656 35.0331L12.6261 34.9587L11.4043 35.0331L10.5897 35.1818L9.50355 35.6281L9.23202 36L10.3181 35.7769H11.2685L12.0831 38.3802L12.2188 39.1983L11.8794 39.3471L10.4539 39.719V39.7934L11.54 39.719L13.9838 39.2727V38.9752L13.1692 35.405L12.9656 35.0331ZM12.0152 41.2066L11.6758 40.9835L11.2685 41.5785L10.997 41.7273V41.9504V42.0992L10.6576 41.6529L10.0466 41.4297L9.43567 41.3554V41.4297L10.2503 41.876L10.9291 42.4711L11.1327 43.1405L10.8612 42.9173L9.84297 42.1735L9.63932 42.2479L10.3181 42.7686L11.0649 43.5124L11.2685 44.2562V45.3719L11.1327 45.9669L10.5897 47.0826L10.3181 47.9008L10.386 48.4958L10.5218 48.2727L10.9291 47.3801L11.2685 47.0082L12.0831 46.6363H12.6261L12.8298 46.3388L12.9656 45.0744L13.0334 45.3719L13.1692 45.5206V44.4049L13.1013 43.7355L12.8977 42.9173L12.4904 41.9504L12.0152 41.2066ZM11.7437 47.9752L11.6758 47.7521L11.54 47.9008L10.9291 48.6446L10.6575 49.0909L10.4539 49.8347L10.5218 50.2066L10.6575 49.9091L10.9291 49.1653L11.3364 48.6446L11.7437 47.9752ZM13.7801 39.9421H13.1013L11.9473 40.314L11.8794 40.4628L12.4225 41.0578L12.9656 41.9504L13.305 42.9173L13.5086 43.9587V45.3719L13.3728 45.8925L13.4407 46.1157L13.7801 45.595L13.9838 44.8512H14.0517V45.2975L13.848 46.1157L13.7801 46.6363L14.1874 48.1983L14.7984 48.4215L15.7487 48.5702L15.4772 48.7934L14.5947 49.0909L13.0334 49.1653V49.2397L13.7801 49.3884L14.7305 49.4628L15.3414 49.314L16.0203 48.9421L16.4954 48.4215L16.8349 47.5289V46.0413L16.767 45.0744L16.5633 44.1074L16.2239 43.1405L15.6808 42.0248L15.002 40.9835L14.459 40.314L13.7801 39.9421Z" fill="white"/>
<path fill-rule="evenodd" clip-rule="evenodd" d="M59.1256 31.9091H33.1945L32.923 32.0579L32.7194 32.5785V33.6198H30.3435L29.8683 33.6942L29.8004 33.7686L29.5968 34.9587L15.3414 35.0331L15.1378 35.1818L14.9341 35.5537V36.1488L15.002 36.6694L15.2736 37.8595L15.7487 39.2727L16.3597 40.5372L17.2422 41.876L18.0567 42.7686L18.8713 43.5868L19.8217 44.3306L20.9757 45.0744L22.0618 45.595L23.4195 46.1157L25.0486 46.562L27.0851 46.9339L29.8004 47.0826L32.6515 47.157L32.7194 48.124L32.8551 48.5702L33.1945 48.7934H35.1631V51.6198L35.231 52.0661L35.3668 52.3636L35.5704 52.438H38.2178L38.0142 52.7355L37.4032 53.7769L36.7923 55.2645L36.4529 56.5289L36.385 57.0496L31.5654 57.124L30.7508 57.3471L30.0041 57.719L29.1216 58.3884L28.3749 59.281L27.8318 60.3967L27.4924 61.5868L16.2239 61.6612L15.9524 62.0331V62.5537L16.156 62.8512L16.6991 63H64.3526L64.5562 62.9256L64.8278 62.4793V61.7355L64.6241 60.6942L64.0811 59.5041L63.538 58.6859L63.1986 58.3884L62.5876 57.8678L61.773 57.4215L60.7548 57.124L56.003 57.0496L55.8673 56.3802L55.46 55.0413L54.849 53.6281L54.1702 52.438H56.6819L56.9534 52.3636L57.157 51.9917L57.2249 48.8678L59.0578 48.7934L59.2614 48.719L59.6008 48.3471V47.0826H62.1125L62.384 47.0083L62.6555 46.562L62.7234 45.1488L63.4022 45.0744L64.0811 44.8512L65.1672 44.2562L65.7781 43.6612L66.3212 42.9174L66.7963 41.876L67 40.7603V39.9422L66.8642 39.124L66.5927 38.3058L66.0496 37.3388L65.4387 36.6694L64.692 36.1488L63.6059 35.7025L62.7913 35.6281L62.7234 35.5537L62.6555 34.0661L62.3161 33.6198L59.6687 33.5455L59.6008 32.3554L59.465 32.1322H59.3293V31.9835L59.1256 31.9091ZM58.311 33.3223H34.077L34.0091 33.3967V47.3058L34.077 47.3802H58.311L58.3789 47.3058V33.3967L58.311 33.3223ZM37.4711 34.9587L37.8784 35.1074L38.0821 35.5537V45.1488L37.9463 45.5207L37.6748 45.6694H37.1996L36.9281 45.5207L36.8602 45.3719V35.405L37.1996 35.0331L37.4711 34.9587ZM39.5755 39.6446H49.3506L49.7578 40.0165V40.6859L49.4184 41.0578H39.5755L39.2361 40.7603L39.1003 40.314L39.2361 39.9421L39.5755 39.6446ZM59.6687 35.033H61.3657L61.4336 35.7768V45.595L61.3657 45.6694H59.6687L59.6008 45.595V35.1818L59.6687 35.033ZM63.3343 37.1157L62.7234 37.0413L62.6555 37.1157V43.6611L62.7234 43.7355H63.0628L64.081 43.2892L64.7599 42.843L65.0314 42.4711L65.4387 41.8016L65.7102 40.8347V39.8678L65.5745 39.3471L65.235 38.5289L64.692 37.8595L64.1489 37.4132L63.3343 37.1157ZM36.5208 48.7934H55.8673V51.0248H36.5208L36.4529 50.9504V48.8678L36.5208 48.7934ZM32.6515 35.033H30.9544V45.6694L32.3799 45.7438L32.7194 45.6694V35.1074L32.6515 35.033ZM22.1297 36.3719H27.0172L29.6646 36.4463V45.6694H28.6464L26.2026 45.3719L24.5056 45L23.1479 44.5537L21.7903 43.9587L20.4326 43.1405L19.3465 42.2479L18.0567 40.8347L17.3779 39.719L16.8348 38.5289L16.2918 36.7438V36.4463L22.1297 36.3719ZM46.4316 55.562H45.8207L44.8703 55.7107L43.9878 56.0083L43.1733 56.4545L42.5623 56.9008V57.124H49.8936V57.0496L49.4184 56.6033L48.536 56.0826L47.5177 55.7107L46.4316 55.562ZM39.9149 52.438H52.4731L53.152 53.3306L53.7629 54.3719L54.3739 55.7851L54.7133 57.0496L54.4417 57.124H51.7943L51.4549 56.7521L50.6403 55.9339L49.69 55.2645L48.536 54.6694L47.925 54.4463L47.1104 54.2975L45.9564 54.2231L44.8024 54.3719L43.7842 54.6694L42.8338 55.1157L42.0871 55.6364L41.4083 56.2314L40.7974 56.8264L40.5258 57.124H37.7427L37.6748 56.8264L38.1499 55.3388L38.8288 53.9256L39.3718 53.1074L39.9149 52.438ZM60.5512 58.5372H31.769L31.0902 58.6859L30.1398 59.281L29.6646 59.8016L29.1895 60.4711L28.9179 61.2149L28.85 61.5868L29.2573 61.6611H62.927L63.4701 61.5868V61.2892L63.1986 60.6198L62.7234 59.8016L62.0446 59.1322L61.23 58.6859L60.5512 58.5372Z" fill="white"/>
<path d="M50.7082 29.3802H55.9352L56.2067 29.5289L56.4782 30.124L56.2746 30.5702L55.9352 30.7934H50.7761L50.4367 30.5702L50.3009 30.3471V29.7521L50.5046 29.4545L50.7082 29.3802Z" stroke="white" stroke-width="1.28" mask="url(#path-15-inside-1_196_49)"/>
<path d="M29.5289 28.7851H35.231L35.5704 28.9339L35.8419 29.5289L35.6383 29.9752L35.3668 30.1983L34.8237 30.2727H31.3617L29.1895 30.1983L28.85 29.7521V29.2314L29.1895 28.8595L29.5289 28.7851Z" stroke="white" stroke-width="1.28" mask="url(#path-15-inside-1_196_49)"/>
<path d="M59.9402 26.3306L62.7913 26.5537L64.2847 26.7025L64.6241 26.8512L64.8278 27.2231L64.7599 27.7438L64.4883 28.0413H63.0628L60.3475 27.8182L59.6687 27.6694L59.3972 27.4463L59.3293 26.9256L59.5329 26.5537L59.6687 26.405L59.9402 26.3306Z" stroke="white" stroke-width="1.28" mask="url(#path-15-inside-1_196_49)"/>
<path d="M58.2432 22.8347L58.5826 22.9091L58.8541 23.281L58.922 23.8016L58.5826 24.1735L57.9037 24.6198L56.4782 25.5124L54.6454 26.6281L53.695 27.2231L53.5593 27.2975H53.0841L52.6768 26.7769L52.7447 26.2562L53.152 25.8843L56.5461 23.8016L57.8359 22.9835L58.2432 22.8347Z" stroke="white" stroke-width="1.28" mask="url(#path-15-inside-1_196_49)"/>
<path d="M56.1388 17.1818L56.5461 17.2562L56.8855 17.7025L56.9534 18L56.614 18.6694L56.1388 19.2645L55.3921 20.3058L54.4417 21.5703L53.695 22.6116L53.2877 22.9835L52.8126 22.9091L52.541 22.6116L52.4731 22.4628V22.0165L53.0841 21.124L54.0344 19.8595L54.7811 18.8182L55.3242 18.0744L55.9352 17.3306L56.1388 17.1818Z" stroke="white" stroke-width="1.28" mask="url(#path-15-inside-1_196_49)"/>
<path d="M60.6869 17.1818L61.0263 17.2562L61.3657 17.5537L61.5015 17.7769L61.4336 18.1488L60.9585 18.7438L59.8045 20.0083L59.2614 20.5289L58.8541 20.8265L58.4468 20.7521L58.1074 20.3058V19.8595L58.4468 19.3389L58.9899 18.8182L59.6687 18.0744L60.2118 17.5537L60.6869 17.1818Z" stroke="white" stroke-width="1.28" mask="url(#path-15-inside-1_196_49)"/>
<path d="M11.0648 61.6612H14.3232L14.5268 62.0331L14.5947 62.3306L14.3911 62.7025L14.1874 62.9256L13.9159 63H11.2006L10.8612 62.7769L10.6575 62.405L10.7254 61.9587L11.0648 61.6612Z" stroke="white" stroke-width="1.28" mask="url(#path-15-inside-1_196_49)"/>
<path d="M5.90577 61.6612H9.02836L9.23201 61.8843L9.36778 62.1818L9.29989 62.5537L9.02836 62.9256L8.82472 63H5.90577L5.56636 62.7025L5.49848 62.1074L5.70212 61.7355L5.90577 61.6612Z" stroke="white" stroke-width="1.28" mask="url(#path-15-inside-1_196_49)"/>
<path d="M37.4711 34.9587L37.8784 35.1074L38.0821 35.5537V45.1488L37.9463 45.5207L37.6748 45.6694H37.1996L36.9281 45.5207L36.8602 45.3719V35.405L37.1996 35.0331L37.4711 34.9587Z" stroke="white" stroke-width="1.28" mask="url(#path-15-inside-1_196_49)"/>
<path d="M39.5755 39.6446H49.3506L49.7578 40.0165V40.6859L49.4184 41.0578H39.5755L39.2361 40.7603L39.1003 40.314L39.2361 39.9421L39.5755 39.6446Z" stroke="white" stroke-width="1.28" mask="url(#path-15-inside-1_196_49)"/>
<path fill-rule="evenodd" clip-rule="evenodd" d="M41.6119 0L42.6981 0.297521L43.3769 0.743801L43.7842 1.26446L44.1915 2.15702L44.8024 4.16529L45.6849 7.21487L46.3637 9.52066L46.4316 9.89256H47.1783L48.0608 10.1901L48.6717 10.6364L49.2148 11.3058L49.6221 12.1983L49.8257 13.0165L49.8936 13.9835L49.6221 15.1736L49.2148 15.843L48.7396 16.3636L48.4681 16.438L48.8075 17.8512L50.233 22.6116L50.6403 24.0248L50.844 24.9917V25.5868L50.7082 26.3306L50.233 27.2231L49.69 27.7438L48.9433 28.1157L44.5309 29.6777L41.7477 30.6446L41.0689 30.7934H40.5258L39.847 30.6446L39.2361 30.2727L38.8288 29.9008L38.3536 29.0826L37.9463 27.8926L37.2675 25.5124L36.7244 23.7273L34.5522 24.4711H33.8733L33.6018 23.9504L33.3303 23.2066L32.9909 22.0909L31.1581 22.7603L23.9625 25.2893L18.0567 27.3719L15.2736 28.3388L11.7437 29.6033L10.9291 29.9008V30.4215L10.6575 30.7934L10.4539 30.8678L10.5218 31.5372L11.3364 34.5124L13.1013 34.6612L13.4407 34.8843L13.7801 36.0744L14.2553 38.3802L14.5947 39.5702L14.9341 40.314L15.4772 40.9091L16.0881 41.876L16.6312 43.0661L16.9027 43.8843L17.1743 45.1488L17.2421 45.6694V47.6033L16.9706 48.8678L16.6991 49.6859L16.2239 50.5041L15.6808 51.0248L14.7305 51.5454L13.848 51.843L13.0334 51.9917L12.2867 52.0661H11.2685L10.4539 51.9173L9.77507 51.6198L9.16413 51.1735L8.68896 50.5785L8.41743 49.8347V48.7934L8.48531 47.9008L8.28166 47.2314L7.94225 47.3058L6.85613 47.7521L5.83789 47.9752L4.81965 48.0496L3.39412 47.9008L2.308 47.5289L1.62918 47.157L1.01824 46.4876L0.475177 45.2975L0.203647 44.3306L0 43.0661V41.5785L0.203647 40.2397L0.610942 39.0496L1.22188 37.7851L1.90071 36.8182L2.44377 36.0744L2.78318 35.3306L3.12259 33.9917L3.80142 30.6446L3.93718 30.5702H4.61601L6.1773 30.719L7.46707 30.9421L6.85613 28.7851L5.63424 24.6198L5.49848 24.0248V23.5041L6.04154 23.1322L8.01013 22.4628H8.41743L8.82472 22.9835L10.2503 22.5372L13.5765 21.3471L17.4458 20.0083L20.3647 18.9669L23.7589 17.7769L26.542 16.8099L28.5785 16.0661L30.8186 15.3223L30.9544 15.2479L30.8186 14.5785L30.4792 13.3884V12.719L30.7508 12.4215L32.9909 11.6033H33.1266L32.7872 10.3388L32.1084 7.95868L31.6332 6.32231L31.5653 5.95041V5.13223L31.769 4.38843L32.1763 3.64463L32.7193 3.12397L33.6018 2.67769L37.1996 1.41322L40.3901 0.297521L41.1368 0.0743802L41.6119 0ZM41.9514 1.48761H41.2047L38.0142 2.60331L33.8055 4.09091L33.2624 4.46281L32.8551 5.13224V5.95042L32.9909 6.47108L33.1945 6.54546L35.1631 5.87604L42.3587 3.34711L43.0375 3.04959V2.75207L42.9017 2.38017L42.4944 1.78513L41.9514 1.48761ZM43.5127 4.4628H43.1733L39.5076 5.72726L36.1814 6.91734L33.5339 7.80991V8.18181L33.8734 9.44627L35.4347 14.7273L36.5208 18.4463L37.6069 22.0909L38.8288 26.3306L39.1682 26.4049L43.4448 24.9173L46.8389 23.7273L48.8754 22.9835V22.6116L47.5177 18L46.4316 14.281L44.9382 9.22313L44.2594 6.91734L43.5127 4.4628ZM49.4184 24.3967L49.1469 24.3223L47.8571 24.7686L44.463 25.9587L39.4397 27.7438L39.3718 28.1157L39.5076 28.4876L39.7791 28.9339L40.3222 29.3802H41.0689L41.3404 29.3058L43.92 28.4132L47.5177 27.1488L48.8754 26.6281L49.2827 26.2562L49.5542 25.5124V24.9917L49.4184 24.3967ZM47.2462 11.3802L46.9068 11.3058V11.5289L47.1783 12.4959L47.6535 14.0579L47.9929 15.0992H48.1966L48.6038 14.1322V13.3884L48.1966 12.1983L47.7893 11.6777L47.2462 11.3802ZM33.6697 13.0165L33.3982 12.9422L32.9909 13.0909L31.9726 13.4628L31.9048 13.7603L32.0405 14.1322L32.7872 16.7355L33.4661 18.967L34.2806 21.7934L34.6201 22.8347L34.8237 22.9091L36.2492 22.3884L36.3171 22.0909L35.9098 20.6777L35.0952 18L34.4164 15.6198L33.6697 13.0165ZM31.4975 16.6612L31.2938 16.5868L29.5968 17.1818L22.1976 19.7851L17.7852 21.3471L15.2057 22.2397L11.0648 23.7273L10.386 24.0248L9.70719 24.6942L9.36777 25.0661L9.77507 26.4793L10.3181 28.4132L10.4539 28.562L10.6575 28.4876L15.5451 26.7769L18.9392 25.5868L29.461 21.8678L32.5157 20.8264L32.6515 20.6777L32.312 19.4876L31.4975 16.6612ZM7.53495 24.1735H7.19553L7.05977 24.2479V24.6942L7.26342 24.9917H8.01012L7.87436 24.5455L7.53495 24.1735ZM7.87436 25.2149H7.26342V25.5868L7.46707 26.2562H7.67072L8.01013 25.6611L8.07801 25.2892L7.87436 25.2149ZM8.07802 26.5537H7.94226L7.73861 26.7769V27.2231L7.87437 27.4463L8.01014 27.2231L8.07802 26.5537ZM8.62108 26.7025L8.48531 26.4793L8.34955 27L8.1459 28.2645L8.21378 28.8595L8.5532 29.9752H8.96049L9.2999 29.8265L9.36779 29.4546L9.02837 28.3389L8.62108 26.7025ZM10.0466 31.1653L9.7072 31.0909L9.57143 31.1653L8.89261 31.3884L8.68896 31.5372L9.2999 31.9091V32.1322L8.96049 34.7355V35.3306H9.09625L9.77508 34.9587L10.8612 34.6612L10.9291 34.438L10.5218 32.8017L10.0466 31.1653ZM5.97365 31.7603L5.36271 31.6859L5.49847 31.8347L6.65247 32.2066L7.3313 32.3554L7.19553 34.7355L6.99189 36.2231L6.10942 36.3719L6.38094 36.5206H8.07801L8.21377 36.2975L8.4853 35.1074L8.8926 32.9504V32.1322L7.05977 31.9835L5.97365 31.7603ZM4.54813 31.3884L4.34448 31.314L4.07295 31.5372L3.80142 32.5041L3.52989 34.2149V34.9587H3.59777L3.80142 33.9173L4.2766 32.3554L4.54813 31.3884ZM4.48025 36.6694L3.86931 36.4463L3.80143 36.5206L3.86931 36.8925L4.34449 37.0413L3.73354 36.9669L3.5299 37.0413L3.59778 37.4132L4.20872 37.7851L4.2766 37.8595L3.59778 37.4876L3.32625 37.4132L3.1226 37.7107L2.78319 38.0826L2.30801 38.6777L2.03648 39.1983L2.10436 39.6446L2.37589 40.1653L2.85107 40.6115L3.5299 40.9834L4.20872 41.1322L4.48025 40.6859L5.09119 39.719L5.49849 38.9008L5.90578 37.7107L5.97366 37.0413L5.8379 36.9669L5.22696 36.8925L4.48025 36.6694ZM1.90071 39.719L1.76494 39.5702L1.62918 39.7934V40.6859L1.76494 41.1322L2.10435 41.5041L2.64741 41.8016L3.32624 41.876L3.25836 41.5041L2.64741 40.9835L2.24012 40.4628L1.90071 39.719ZM5.36271 40.9835L5.29483 40.686L5.15906 41.0579H5.0233L4.88753 41.281L4.20871 41.876L3.25835 42.2479L2.98682 42.6198L2.71529 43.1405L2.308 43.8099L1.9007 44.3306H1.56129L1.08611 44.1074L0.882466 44.1818L1.35764 44.5537H1.96859L2.17223 44.405L3.19047 42.843L3.32624 42.5455L3.52988 42.4711L4.20871 42.0992L4.88753 41.6529L5.36271 40.9835ZM6.78824 43.2149L5.90577 43.1405L4.616 43.3636L4.00506 43.5868L2.98682 44.1074L2.44376 44.6281L2.10435 45L1.76494 45.2975L1.22188 45.4463L0.882466 45.2231L1.01823 45.6694L1.62917 46.4876L2.24012 46.9339L2.57953 47.0083L2.24012 46.4876L2.17223 45.8182L2.308 45.2975L2.57953 44.9256V45.8182L2.64741 45.9669L2.85106 46.0413L3.05471 45.1487L3.32624 44.5537L3.93718 44.7768L4.88753 45.4463L5.97365 46.0413L6.72036 46.2645H7.46707L7.87436 46.1901V44.7768L8.01013 44.2562L8.07801 43.8843L7.67071 43.8099L6.24518 43.6611L5.63424 43.5124L6.78824 43.3636V43.2149ZM6.24518 39.9422L5.77 39.8678L5.36271 40.3884L5.77 40.314L6.1773 40.1653L6.24518 39.9422ZM6.85612 39.0496V38.8265L6.51671 39.124L6.04153 39.1984L5.97365 39.3471L6.04153 39.4959H6.44883L6.51671 39.2727H6.65248L6.85612 39.0496ZM7.05978 38.3058V38.0826L6.5846 38.3058L6.44884 38.6033H6.72037L7.05978 38.3058ZM8.07802 37.6364L7.94226 37.562L7.87437 37.6364L7.67073 38.2314V39.719L7.53496 40.0909L6.85614 40.4628L6.58461 40.7603H7.60284L7.73861 40.8347L7.87437 41.281L7.94226 42.1735L7.60284 42.3223L6.51672 42.3967V42.4711L7.12767 42.6198L7.87437 42.9917H8.1459L8.28167 42.0992V40.1653L8.1459 38.9752L8.07802 37.6364ZM8.75684 36.8926H8.68896L8.62108 37.562V39.0496L8.75684 40.7603L9.43567 40.6859L9.50355 40.3884L9.23202 39.5702L8.96049 38.4545L8.75684 36.8926ZM12.9656 35.0331L12.6261 34.9587L11.4043 35.0331L10.5897 35.1818L9.50355 35.6281L9.23202 36L10.3181 35.7769H11.2685L12.0831 38.3802L12.2188 39.1983L11.8794 39.3471L10.4539 39.719V39.7934L11.54 39.719L13.9838 39.2727V38.9752L13.1692 35.405L12.9656 35.0331ZM12.0152 41.2066L11.6758 40.9835L11.2685 41.5785L10.997 41.7273V41.9504V42.0992L10.6576 41.6529L10.0466 41.4297L9.43567 41.3554V41.4297L10.2503 41.876L10.9291 42.4711L11.1327 43.1405L10.8612 42.9173L9.84297 42.1735L9.63932 42.2479L10.3181 42.7686L11.0649 43.5124L11.2685 44.2562V45.3719L11.1327 45.9669L10.5897 47.0826L10.3181 47.9008L10.386 48.4958L10.5218 48.2727L10.9291 47.3801L11.2685 47.0082L12.0831 46.6363H12.6261L12.8298 46.3388L12.9656 45.0744L13.0334 45.3719L13.1692 45.5206V44.4049L13.1013 43.7355L12.8977 42.9173L12.4904 41.9504L12.0152 41.2066ZM11.7437 47.9752L11.6758 47.7521L11.54 47.9008L10.9291 48.6446L10.6575 49.0909L10.4539 49.8347L10.5218 50.2066L10.6575 49.9091L10.9291 49.1653L11.3364 48.6446L11.7437 47.9752ZM13.7801 39.9421H13.1013L11.9473 40.314L11.8794 40.4628L12.4225 41.0578L12.9656 41.9504L13.305 42.9173L13.5086 43.9587V45.3719L13.3728 45.8925L13.4407 46.1157L13.7801 45.595L13.9838 44.8512H14.0517V45.2975L13.848 46.1157L13.7801 46.6363L14.1874 48.1983L14.7984 48.4215L15.7487 48.5702L15.4772 48.7934L14.5947 49.0909L13.0334 49.1653V49.2397L13.7801 49.3884L14.7305 49.4628L15.3414 49.314L16.0203 48.9421L16.4954 48.4215L16.8349 47.5289V46.0413L16.767 45.0744L16.5633 44.1074L16.2239 43.1405L15.6808 42.0248L15.002 40.9835L14.459 40.314L13.7801 39.9421Z" stroke="white" stroke-width="1.28" mask="url(#path-15-inside-1_196_49)"/>
<path fill-rule="evenodd" clip-rule="evenodd" d="M59.1256 31.9091H33.1945L32.923 32.0579L32.7194 32.5785V33.6198H30.3435L29.8683 33.6942L29.8004 33.7686L29.5968 34.9587L15.3414 35.0331L15.1378 35.1818L14.9341 35.5537V36.1488L15.002 36.6694L15.2736 37.8595L15.7487 39.2727L16.3597 40.5372L17.2422 41.876L18.0567 42.7686L18.8713 43.5868L19.8217 44.3306L20.9757 45.0744L22.0618 45.595L23.4195 46.1157L25.0486 46.562L27.0851 46.9339L29.8004 47.0826L32.6515 47.157L32.7194 48.124L32.8551 48.5702L33.1945 48.7934H35.1631V51.6198L35.231 52.0661L35.3668 52.3636L35.5704 52.438H38.2178L38.0142 52.7355L37.4032 53.7769L36.7923 55.2645L36.4529 56.5289L36.385 57.0496L31.5654 57.124L30.7508 57.3471L30.0041 57.719L29.1216 58.3884L28.3749 59.281L27.8318 60.3967L27.4924 61.5868L16.2239 61.6612L15.9524 62.0331V62.5537L16.156 62.8512L16.6991 63H64.3526L64.5562 62.9256L64.8278 62.4793V61.7355L64.6241 60.6942L64.0811 59.5041L63.538 58.6859L63.1986 58.3884L62.5876 57.8678L61.773 57.4215L60.7548 57.124L56.003 57.0496L55.8673 56.3802L55.46 55.0413L54.849 53.6281L54.1702 52.438H56.6819L56.9534 52.3636L57.157 51.9917L57.2249 48.8678L59.0578 48.7934L59.2614 48.719L59.6008 48.3471V47.0826H62.1125L62.384 47.0083L62.6555 46.562L62.7234 45.1488L63.4022 45.0744L64.0811 44.8512L65.1672 44.2562L65.7781 43.6612L66.3212 42.9174L66.7963 41.876L67 40.7603V39.9422L66.8642 39.124L66.5927 38.3058L66.0496 37.3388L65.4387 36.6694L64.692 36.1488L63.6059 35.7025L62.7913 35.6281L62.7234 35.5537L62.6555 34.0661L62.3161 33.6198L59.6687 33.5455L59.6008 32.3554L59.465 32.1322H59.3293V31.9835L59.1256 31.9091ZM58.311 33.3223H34.077L34.0091 33.3967V47.3058L34.077 47.3802H58.311L58.3789 47.3058V33.3967L58.311 33.3223ZM37.4711 34.9587L37.8784 35.1074L38.0821 35.5537V45.1488L37.9463 45.5207L37.6748 45.6694H37.1996L36.9281 45.5207L36.8602 45.3719V35.405L37.1996 35.0331L37.4711 34.9587ZM39.5755 39.6446H49.3506L49.7578 40.0165V40.6859L49.4184 41.0578H39.5755L39.2361 40.7603L39.1003 40.314L39.2361 39.9421L39.5755 39.6446ZM59.6687 35.033H61.3657L61.4336 35.7768V45.595L61.3657 45.6694H59.6687L59.6008 45.595V35.1818L59.6687 35.033ZM63.3343 37.1157L62.7234 37.0413L62.6555 37.1157V43.6611L62.7234 43.7355H63.0628L64.081 43.2892L64.7599 42.843L65.0314 42.4711L65.4387 41.8016L65.7102 40.8347V39.8678L65.5745 39.3471L65.235 38.5289L64.692 37.8595L64.1489 37.4132L63.3343 37.1157ZM36.5208 48.7934H55.8673V51.0248H36.5208L36.4529 50.9504V48.8678L36.5208 48.7934ZM32.6515 35.033H30.9544V45.6694L32.3799 45.7438L32.7194 45.6694V35.1074L32.6515 35.033ZM22.1297 36.3719H27.0172L29.6646 36.4463V45.6694H28.6464L26.2026 45.3719L24.5056 45L23.1479 44.5537L21.7903 43.9587L20.4326 43.1405L19.3465 42.2479L18.0567 40.8347L17.3779 39.719L16.8348 38.5289L16.2918 36.7438V36.4463L22.1297 36.3719ZM46.4316 55.562H45.8207L44.8703 55.7107L43.9878 56.0083L43.1733 56.4545L42.5623 56.9008V57.124H49.8936V57.0496L49.4184 56.6033L48.536 56.0826L47.5177 55.7107L46.4316 55.562ZM39.9149 52.438H52.4731L53.152 53.3306L53.7629 54.3719L54.3739 55.7851L54.7133 57.0496L54.4417 57.124H51.7943L51.4549 56.7521L50.6403 55.9339L49.69 55.2645L48.536 54.6694L47.925 54.4463L47.1104 54.2975L45.9564 54.2231L44.8024 54.3719L43.7842 54.6694L42.8338 55.1157L42.0871 55.6364L41.4083 56.2314L40.7974 56.8264L40.5258 57.124H37.7427L37.6748 56.8264L38.1499 55.3388L38.8288 53.9256L39.3718 53.1074L39.9149 52.438ZM60.5512 58.5372H31.769L31.0902 58.6859L30.1398 59.281L29.6646 59.8016L29.1895 60.4711L28.9179 61.2149L28.85 61.5868L29.2573 61.6611H62.927L63.4701 61.5868V61.2892L63.1986 60.6198L62.7234 59.8016L62.0446 59.1322L61.23 58.6859L60.5512 58.5372Z" stroke="white" stroke-width="1.28" mask="url(#path-15-inside-1_196_49)"/>
<line x1="68.6808" y1="63.0569" x2="68.6808" y2="1.90735e-05" stroke="white"/>
<line x1="69.1808" y1="21.3926" x2="155" y2="21.3926" stroke="white"/>
</svg>
