<svg width="125" height="125" viewBox="0 0 125 125" fill="none" xmlns="http://www.w3.org/2000/svg">
<path d="M114.646 12.258C112.626 7.00005 100.505 1.97806 94.6967 0.124303C93.2826 -0.684608 92.5924 2.65215 92.424 4.42164C92.424 6.84838 94.7809 9.64586 95.9593 10.7413L89.8988 22.3694C88.2826 22.5716 84.3432 24.8129 82.5755 25.9083C79.1412 24.8972 68.35 26.6667 63.3837 27.6778L57.8281 21.611C55.8079 18.982 53.6194 17.6507 52.7776 17.3137H49.9999V16.5553V12.7635L45.4544 6.6967C43.0302 4.06774 39.5622 5.26426 38.1312 6.19113L33.8383 10.2357C32.2221 11.8535 32.4915 15.797 32.8282 17.5664L38.6363 23.8861H40.909L44.4443 28.1834L42.1716 34.503V37.5364C44.1918 40.7721 49.7473 42.4236 52.2726 42.8449L69.6968 45.6255V55.2314L69.1917 55.7369L65.9089 58.7703L11.6161 42.5921H5.05049C2.0202 43.1988 0.420874 45.5413 0 46.6367V52.7035C0.606059 56.1414 9.84846 58.8546 14.3939 59.7815L55.5554 78.4876V78.7403C56.1615 82.7849 63.3837 85.8183 66.919 86.8294C70.1513 87.2339 75.5049 90.3684 77.7776 91.8851V121.208H66.919C65.3029 122.826 66.2456 124.242 66.919 124.747H116.161C117.979 123.332 116.919 121.798 116.161 121.208H103.283C102.272 116.152 96.1277 114.046 93.1816 113.625L99.4947 76.9708C101.515 78.3864 103.367 77.5607 104.04 76.9708L124.747 57.7592V53.9674L112.878 40.5699L112.121 33.9975L109.596 31.4696C116.666 32.8852 120.623 27.5093 121.717 24.6444C126.363 12.5108 118.939 11.3311 114.646 12.258Z" fill="white"/>
</svg>
