<svg width="118" height="125" viewBox="0 0 118 125" fill="none" xmlns="http://www.w3.org/2000/svg">
<path d="M95.6418 66.9341H96.345L97.1889 69.4599L98.3141 71.2841L99.2987 72.4067L101.69 74.2309L104.503 76.3357L107.175 78.3002L108.722 79.5631L111.395 82.2293L112.942 84.3341L114.348 86.7196L115.333 88.8245L116.317 91.6309L117.021 94.9987L117.161 96.4019V98.3664L116.88 100.612L116.177 102.716L115.192 104.4L114.067 105.383L112.942 105.944L111.957 106.225L110.129 106.365L108.019 106.084L106.19 105.383L104.643 104.4L103.518 103.418L102.252 101.594L101.549 99.7697L101.127 97.1035V95.139L101.549 91.9116L101.408 90.789L100.565 89.8067L99.7206 89.5261H98.7361L97.8922 90.0874L97.3296 90.9293L97.0483 91.9116L94.6572 91.7712H92.1255L88.8906 92.0519L86.0776 92.6132L83.1239 93.5955L80.7329 94.718L78.4825 96.1213L76.5134 97.8051L75.1069 99.3487L74.1224 100.892L73.8411 102.155L74.263 103.278L74.9663 103.839L75.8102 104.12L76.7947 103.979L77.498 103.558L78.6232 101.875L80.4516 100.05L82.5613 98.6471L84.5304 97.6648L87.0621 96.8229L89.8751 96.2616L91.2816 96.1213H95.2198L96.4857 96.2616L96.6263 96.4019L96.9076 99.3487L97.4702 101.594L98.4548 103.699L99.4393 105.242L100.424 106.505L101.549 107.487L103.096 108.61L105.347 109.733L107.738 110.434L110.269 110.715L110.41 111.136L109.847 112.82L109.003 114.504L107.456 116.328L105.487 117.871L102.815 119.415L99.58 120.818L96.2044 121.941L91.141 123.204L85.7963 124.186L81.8581 124.747H79.1858L76.7947 124.186L74.5443 123.063L72.9972 121.941L71.872 120.818L70.4655 118.854L69.3403 116.608L68.4964 114.504L67.6525 111.697L66.9492 108.329L66.5273 105.242L66.1053 100.05V91.21L66.6679 82.089L67.0899 77.8793L70.1842 76.1954L74.8256 73.9502L79.1858 72.126L82.8427 70.7228L87.7654 69.0389L92.1255 67.776L95.6418 66.9341Z" fill="white"/>
<path d="M61.6045 0H63.8549L65.2615 0.420967L66.3866 0.982257L67.7931 2.24517L68.637 3.6484L69.1996 5.19195V7.71776L68.637 9.40164L67.7931 10.6645L67.2305 11.2258H66.9492V12.3484L72.8565 32.9759L75.2476 41.255L77.7793 50.0953L78.2012 50.2356L80.7329 49.6743L84.5304 49.113L87.6247 48.8324H89.8751L90.719 50.2356L92.5475 54.0243L93.954 57.6727L95.0792 61.1808L95.3605 62.4437L94.0946 62.8647L89.5938 63.9873L84.1085 65.6712L79.4671 67.355L75.6695 68.8986L71.872 70.5825L69.1996 71.8454L66.6679 73.2486H66.1053L65.2615 71.0034L63.8549 65.9518L63.0111 62.1631L62.4485 58.7953V57.9534L64.2769 56.4098L66.9492 54.5856L69.1996 53.3227L71.5907 52.2001L73.2785 51.4985L72.9972 50.2356L70.3248 40.9743L66.5273 27.784L62.8704 15.1549L62.3078 13.05H61.8859L60.0574 16.2775L58.229 19.6452L56.4005 22.8726L54.8534 25.8194L53.4469 28.3452L51.6184 31.713L49.79 34.9404L47.5396 39.1501L47.1176 39.9921L50.7745 41.3953L54.5721 43.0792L57.1038 44.4824L59.4948 46.1663L60.7607 47.2888L61.8859 48.6921L62.5891 50.2356L62.7298 50.6566V52.7614L62.3078 54.1647L60.62 57.2518L59.0729 60.0582L58.6509 60.9002L58.0883 60.6195L56.9631 59.6373L53.4469 57.6727L50.7745 56.2695L46.977 54.4453L41.773 52.3405L38.1161 51.0776L33.6153 49.6743L29.1145 48.5518L23.4885 47.4292L22.2227 47.1485L22.504 45.8856L24.0511 41.3953L25.1763 39.1501L26.3015 37.7469L27.708 36.7646L28.9738 36.3437H31.0836L36.147 37.1856L41.9136 38.4485L42.7575 38.5888L43.0388 37.7469L45.2892 33.5372L47.1176 30.3098L48.6648 27.363L50.4932 24.1356L52.7436 19.9259L54.5721 16.6984L56.1192 13.7517L57.5257 11.2258L57.6664 10.5242L56.6818 8.98067L56.2599 7.43712V5.61292L56.6818 4.06937L57.5257 2.52581L58.9322 1.12259L60.62 0.280645L61.6045 0Z" fill="white"/>
<path fill-rule="evenodd" clip-rule="evenodd" d="M22.2226 51.4986H20.6755L19.5503 52.9018L18.2845 54.4453L16.7373 56.2695L13.643 60.1986L11.6739 62.8647L9.98612 65.2502L7.73573 68.618L5.76664 71.8454L4.21949 74.6518L3.09429 77.0373L1.9691 79.5631L0.984548 82.5099L0.2813 85.3164L0 87.8422V89.3858L0.140649 90.6487L0.562598 92.3325L1.26585 94.0164L2.67234 95.9809L3.93819 97.2439L5.06339 98.2261L6.46988 99.489L8.72028 101.313L11.3926 103.137L13.7837 104.541L17.2999 106.225L20.1129 107.347L23.7698 108.47L27.1454 109.171L29.3958 109.312L31.3649 109.031L33.4746 108.329L34.1779 107.628L35.4437 104.821L37.2722 100.331L39.2413 94.8584L41.351 88.1228L41.9136 87.2809L42.7575 86.8599H43.8827L44.3046 87.0003L44.8672 87.4212L45.4298 88.2632V89.3858L45.2892 90.0874L44.3046 93.4551L42.6168 98.5068L41.351 101.734L41.4916 102.436L43.3201 103.137L46.1331 103.699H48.1022L49.2274 103.558L50.7745 103.137L52.7436 102.155L54.1501 101.173L55.6973 99.3487L56.6818 97.3842L57.807 94.1567L58.9322 90.0874L59.7761 85.7374L60.1981 82.2293V77.0373L59.7761 74.6518L57.6664 68.3373L57.2444 65.3905L57.1038 65.1099L56.2599 64.5486L54.0095 63.005L50.9152 61.1808L46.6957 59.076L43.4607 57.6728L39.5226 56.1292L33.8966 54.305L28.6925 52.9018L22.2226 51.4986ZM45.5705 78.4406H43.6014L42.3356 78.5809L41.0697 78.8615L39.3819 79.5631L38.3974 80.4051L37.8348 81.247V82.6502L38.3974 83.6325L39.5226 84.1938L40.9291 84.0535L42.0543 83.4922L43.3201 83.0712H45.2892L46.1331 83.2115L47.3989 83.0712L48.2428 82.3696L48.8054 81.247L48.6648 80.1244L47.8209 79.1422L46.977 78.7212L45.5705 78.4406Z" fill="white"/>
</svg>
