<svg width="135" height="125" viewBox="0 0 135 125" fill="none" xmlns="http://www.w3.org/2000/svg">
<path fill-rule="evenodd" clip-rule="evenodd" d="M67.7394 0H66.2795L65.1116 0.292148L63.7977 1.16859L62.9217 2.33718L62.3378 3.944L62.1918 7.74192L14.307 26.8776L9.34337 28.9226L9.19738 28.0462L8.46743 26.7315L7.15351 25.5629L5.69361 24.9786H3.64975L2.77381 25.2708L1.60589 26.0012L1.4599 26.4394H1.16792L0.29198 27.9001L0 29.2148V95.5324L0.14599 96.4088L0.72995 97.7235L1.75188 98.746L4.08772 99.9146L58.834 121.826L64.2356 124.017L66.2795 124.747H67.5934L68.1774 124.601L70.0752 123.871L109.493 108.095L125.114 101.814L129.639 100.061L131.829 99.0381L132.997 98.0156L133.727 96.701L134.019 94.6559V29.5069L133.873 28.4844L133.581 27.608L132.851 26.5855L131.683 25.5629L130.223 24.9786H128.179L126.865 25.5629L125.697 26.5855L124.822 28.0462L124.676 28.9226L122.924 28.1923L71.8271 7.74192L71.6811 4.09007L71.2432 2.62933L70.5132 1.60681L69.3453 0.584296L67.7394 0ZM62.3378 17.9671H61.7538L58.542 19.2818L37.6654 27.608L22.0445 33.8892L17.5188 35.642V35.9342L18.3947 36.3724L30.8039 41.3389L32.1178 41.7771L33.8697 41.0468L60.8778 30.2373L62.3378 29.5069V17.9671ZM9.34334 42.7997L10.6573 43.2379L14.745 44.8447L17.9568 46.1594L19.2707 46.7437L19.1247 47.0358L16.6428 47.9123L10.0733 50.5416L9.34334 50.6877V42.7997ZM32.7018 52.0023L31.5338 51.8563L29.49 52.7327L17.8108 57.4071L17.6648 57.8453L61.4618 75.3742L62.3378 75.6663V64.1265L62.1918 63.8343L32.7018 52.0023ZM66.5715 37.8332L67.7394 37.9793L87.74 46.0133L89.3459 46.7437L89.1999 47.0358L85.2582 48.4966L77.6667 51.5641L73.287 53.317L71.9731 53.9013H71.6811L70.9512 52.1484L69.7832 50.8338L68.6153 50.2495L67.4474 49.9573L65.6955 50.1034L64.2356 50.8338L63.0677 52.1484L62.3378 53.9013L61.4618 53.6092L50.5126 49.227L45.6949 47.328L44.673 46.8898L44.819 46.5976L57.9581 41.339L63.3597 39.1478L66.5715 37.8332ZM72.5571 18.1132L71.6811 17.9671V29.5069L71.9731 29.7991L75.7689 31.2598L91.3898 37.541L100.879 41.3389L102.193 41.7771L103.945 41.0468L111.536 37.9792L116.354 36.0803L116.5 35.642L112.996 34.3274L92.2657 26.0012L76.4988 19.72L72.5571 18.1132ZM102.777 52.0023L107.449 53.9013L111.828 55.6542L115.916 57.261L116.354 57.4071L116.208 57.8453L112.266 59.4521L82.0464 71.5762L76.4988 73.7674L72.5571 75.3742L71.6811 75.5202V63.9804L72.995 63.3961L76.4988 61.9354L101.317 52.0023L101.609 51.8563L102.777 52.0023ZM124.676 42.7997H124.238L123.946 42.9457L119.274 44.8447L114.894 46.5976L114.748 46.8897L115.77 47.328L120.588 49.2269L124.092 50.6877L124.676 50.5416V42.7997Z" fill="white"/>
</svg>
