<svg width="56" height="56" viewBox="0 0 56 56" fill="none" xmlns="http://www.w3.org/2000/svg">
<path d="M27.261 0H29.4506L31.1476 0.109482L32.5161 0.273705L33.8299 0.492669L35.5269 0.875855L37.0049 1.31378L38.4282 1.80645L39.8514 2.4086L41.5484 3.22972L42.8622 3.99609L43.9022 4.65298L44.8328 5.30987L45.5445 5.85728L46.4203 6.56891L46.9677 7.06158L47.4057 7.44477L48.9932 9.03226L49.4858 9.63441L49.9238 10.1271L50.6354 11.0577L51.2375 11.8788L51.9492 12.9736L52.7155 14.2874L53.4819 15.7654L54.1935 17.4076L54.741 18.9404L55.1789 20.4731L55.5073 21.8964L55.781 23.4839L55.9453 24.9071L56 25.6188V29.0127L55.8358 30.7097L55.5621 32.4614L55.2336 33.9394L54.7957 35.5269L54.1935 37.2239L53.8651 38.045L53.4819 38.8661L52.7703 40.2893L51.8944 41.7674L51.4565 42.4242L50.7996 43.3548L50.2522 44.0665L49.5406 44.9423L48.9932 45.5445L48.61 45.9824L47.2962 47.2962H47.1867V47.4057L46.7488 47.7889L46.0371 48.391L45.2708 48.9932L44.2854 49.7048L43.4643 50.2522L42.3695 50.9091L41.4936 51.4018L40.563 51.8944L38.8113 52.6608L37.1691 53.263L35.2532 53.8104L33.7752 54.1388L32.5161 54.3578L30.4907 54.5767L29.3959 54.6315H27.6442L25.9472 54.522L23.8671 54.2483L22.1701 53.9198L20.7468 53.5367L18.7761 52.8798L17.5718 52.3871L16.2581 51.7849L15.5464 51.4565L15.1632 51.5112L13.74 51.9492L9.96285 53.1535L6.84262 54.1388L3.77713 55.1241L0.985337 56H0.437928L0.164223 55.781L0 55.4526L0.054741 55.0147L0.930596 52.3871L1.69697 50.1427L3.17498 45.7634L4.70772 41.2747L4.65298 40.9462L3.99609 39.7419L3.22972 38.1544L2.62757 36.6217L2.08016 34.9795L1.53275 32.7898L1.25904 31.2023L1.04008 29.1222L0.985337 27.6442V26.6588L1.04008 25.3998L1.31378 23.0459L1.58749 21.6227L1.91593 20.2542L2.4086 18.6119L3.01075 17.0244L3.72238 15.437L4.43402 14.0684L5.09091 12.9736L5.96676 11.6598L6.62366 10.784L7.28055 9.96285L7.77322 9.3607L8.1564 8.97752L8.53959 8.53959L9.85337 7.22581L10.2913 6.84262L11.0029 6.24047L11.7693 5.63832L12.5904 5.03617L13.9042 4.16031L15.1085 3.44868L16.5865 2.68231L17.7908 2.1349L19.4878 1.47801L21.2942 0.930596L23.1554 0.492669L24.8524 0.218964L26.3851 0.054741L27.261 0ZM27.0968 5.69306L25.8925 5.80254L24.1408 6.07625L22.3891 6.51417L20.7468 7.06158L19.7067 7.49951L18.3382 8.1564L17.3529 8.70381L16.1486 9.47019L14.999 10.346L14.5064 10.7292L13.4115 11.7146L12.9189 12.1525V12.262H12.8094L12.4262 12.6999L11.9335 13.2473L11.2219 14.1232L10.4555 15.1632L9.79863 16.2033L9.14174 17.3529L8.53959 18.5572L7.8827 20.2542L7.44477 21.6774L7.11632 22.9912L6.84262 24.5787L6.73314 25.6735L6.6784 26.6041V27.7537L6.78788 29.4506L7.00684 31.0381L7.28055 32.3519L7.71848 33.9394L8.1564 35.1437L8.64907 36.2933L9.087 37.1691L9.57967 38.0997L10.2366 39.1398L10.8387 40.0156L10.8935 40.1799V40.7273L9.79863 44.0117L9.03226 46.2561L8.64907 47.3509L8.59433 47.5699L8.97752 47.5152L15.7107 45.3803L15.9296 45.3255H16.3128L17.2981 45.8729L18.2287 46.4203L19.8162 47.1867L21.2395 47.7341L22.608 48.172L24.1955 48.5552L25.5093 48.7742L27.0968 48.9384H29.8886L31.8592 48.7195L33.2825 48.4457L34.9795 48.0078L36.6764 47.4057L37.6618 46.9677L39.0303 46.3108L40.1251 45.654L41.1105 44.9971L41.9863 44.3402L42.5337 43.9022L43.0811 43.4096L43.5191 43.0264L44.2307 42.3695L44.6139 41.9316L45.3255 41.1652L46.4751 39.6325L47.0225 38.8113L47.7889 37.4976L48.4457 36.1838L49.0479 34.7058L49.5406 33.173L49.9238 31.6403L50.1427 30.3812L50.3069 28.958V25.783L50.088 23.8671L49.8143 22.5533L49.3763 20.911L48.8289 19.3783L48.3363 18.2287L47.6794 16.915L46.913 15.6559L46.1466 14.5611L45.3803 13.5758L44.7781 12.9189L44.3949 12.4809L43.3001 11.3861L42.8622 11.0029L42.1505 10.4008L41.1652 9.68915L40.3988 9.14174L39.085 8.37537L38.045 7.82796L36.8407 7.28055L34.9795 6.62366L33.3372 6.18573L31.914 5.91202L30.6549 5.7478L29.9433 5.69306H27.0968Z" fill="#C22121"/>
<path d="M20.6921 14.5063H21.1848L21.7322 14.6158L22.2796 14.999L22.7722 15.7654L23.4291 17.2434L24.3597 19.4878L25.0166 21.0753L25.1261 21.4037V22.1701L24.8524 22.8817L24.4145 23.5933L23.9765 24.1408L22.9912 25.2903L23.1007 25.564L23.7028 26.4399L24.305 27.2062L24.8524 27.8084L25.2356 28.2463L26.002 29.0674L26.7136 29.7243L27.261 30.217L28.0274 30.8192L28.6295 31.2571L29.6149 31.914L30.6002 32.4614L31.2023 32.7351L31.8592 33.0088H32.1329L32.7351 32.3519L33.3372 31.5855L34.0489 30.7097L34.4868 30.1623L34.8153 29.8886L35.1437 29.7243L35.3627 29.6696H35.8553L36.6217 29.8886L38.2639 30.6549L41.0557 31.9687L42.26 32.6256L42.5337 32.8446L42.8074 33.392L42.8622 34.2678L42.7527 35.3079L42.5337 36.1838L42.26 37.0049L41.8768 37.6618L41.2199 38.3734L40.5631 38.9208L39.6872 39.4682L38.8113 39.9062L37.9355 40.2346L37.4428 40.3441L36.1838 40.4536H35.6911L34.3226 40.2893L33.4467 40.1251L31.695 39.6325L30.2718 39.1398L28.8485 38.5924L27.8632 38.1544L26.6588 37.4976L25.6735 36.8954L24.7429 36.2385L23.8671 35.5816L23.1007 34.9247L22.6628 34.5415L21.9511 33.8846L20.8016 32.7351L20.4184 32.2972L19.9257 31.7497L19.433 31.1476L18.7762 30.3265L18.0098 29.2864L17.3529 28.3558L16.5865 27.2062L16.0391 26.2209L15.5464 25.1808L15.1632 24.1408L14.8348 22.7722L14.7253 21.6774V21.13L14.8348 19.871L15.1085 18.7214L15.437 17.8455L15.8201 17.0792L16.2581 16.4223L16.8602 15.7654L17.3529 15.3822L18.0098 15.0538L19.2141 14.7253L20.1447 14.5611L20.6921 14.5063Z" fill="#C22121"/>
</svg>
